<?xml version="1.0" encoding="utf-8"?>
<!-- Generator: Adobe Illustrator 26.0.1, SVG Export Plug-In . SVG Version: 6.00 Build 0)  -->
<svg version="1.1" id="Layer_1" xmlns="http://www.w3.org/2000/svg" xmlns:xlink="http://www.w3.org/1999/xlink" x="0px" y="0px"
	 viewBox="0 0 626 553" style="enable-background:new 0 0 626 553;" xml:space="preserve">
<style type="text/css">
	.st0{fill:#C1A78E;}
</style>
<g>
	<g>
		<path class="st0" d="M580.9,106.1c-2.5,4.1-3.4,8.9-6.3,12.9c-7.8,10.9-18.5,15.9-31.6,16c-28.3,0.1-56.6,0-84.9,0
			c-115.9,0-231.8-0.2-347.6,0.1c-21.5,0.1-36.4-11.4-40.4-27.9c-0.1-0.4-0.6-0.7-0.9-1.1c0-5,0-10,0-15
			c2.7-20.6,21.8-30.2,37.6-30.5c1.5,0,3,0,4.5,0c142.5,0,285,0,427.5,0c8.4,0,16.7,0.8,24.1,5.1c10.2,5.9,16.9,14.3,18,26.4
			C580.9,96.7,580.9,101.4,580.9,106.1z"/>
		<path class="st0" d="M580.9,355c-3,5.3-4.6,11.3-8.9,15.9c-6.6,7.2-14.5,11.5-24.3,12.1c-2.5,0.2-5,0.1-7.5,0.1
			c-143.3,0-286.7,0-430,0c-22.2,0-31.5-6.2-40-26.6c-0.2-0.6-0.8-1-1.2-1.5c0-5,0-10,0-15c2.6-4.9,3.8-10.6,7.5-15
			c8-9.5,18.1-14.1,30.6-14.1c101.5,0.1,203.1,0,304.6,0c43.1,0,86.2,0,129.3,0c20.9,0,33,9.1,39,29.3c0.1,0.3,0.4,0.5,0.7,0.7
			C580.9,345.6,580.9,350.3,580.9,355z"/>
		<path class="st0" d="M325.2,186.9c52.3,0,104.6,0.4,156.9-0.2c18.9-0.2,37,12.5,38.4,34.5c1,16.3-9.7,32.4-27.7,36.7
			c-3.2,0.8-6.5,1.1-9.9,1.1c-105.3,0-210.6,0-315.9,0c-20.9,0-36.6-13.9-37.6-34.7c-1-21,15.6-36.8,33.3-37.2c18-0.4,36-0.1,54-0.1
			C252.9,186.9,289.1,186.9,325.2,186.9z"/>
		<path class="st0" d="M324.5,507.8c-31.5,0-63,0.1-94.4-0.1c-13.9-0.1-25.1-5.5-32.6-17.7c-13.4-21.6,0.2-50.7,25.4-54.2
			c3.5-0.5,6.9-0.7,10.4-0.7c62.1,0,124.2,0,186.4,0c20.1,0,34,11.7,37.7,31.5c3.3,18-10.8,37.6-29,40.3c-4,0.6-7.9,0.9-11.9,0.9
			C385.8,507.8,355.1,507.8,324.5,507.8z"/>
	</g>
</g>
</svg>
