<svg xmlns="http://www.w3.org/2000/svg" viewBox="0 0 105.58 88.65"><defs><style>.cls-1{fill:#9b8870;}</style></defs><title>cake</title><g id="Слой_2" data-name="Слой 2"><g id="Слой_1-2" data-name="Слой 1"><path class="cls-1" d="M96.89,88.21c-19.47.15-58.66.38-78.13.44h-.44v-.44l-.06-38.86v-.5h.5c19.47,0,58.66.11,78.13.21h.29v.29l-.29,38.86Zm0,0L96.6,49.35l.29.29c-19.48.1-58.66.2-78.13.21l.5-.5L19.2,88.21l-.44-.44c19.47,0,58.66.29,78.13.44Z"/><path class="cls-1" d="M27.68,49.35c-.21-10.12-.31-20.25-.39-30.37h.39l15.07-.07c13.43-.08,31.8,0,45.22.07h.39v.38c-.06,7.47-.23,22.52-.39,30-.15-7.48-.32-22.51-.38-30l.38.39c-13.43.07-31.79.14-45.22.07l-15.07-.08.38-.38c-.08,10-.18,20-.38,30Z"/><path class="cls-1" d="M37.32,19.36C37.12,13,37,6.54,36.94.13,43.9,0,50.86.05,57.83,0S71.75,0,78.71.13c-.08,6.41-.18,12.82-.38,19.23C78.14,13.07,78,6.79,78,.5l.37.37q-20.51.22-41,0L37.69.5c-.08,6.29-.18,12.57-.37,18.86Z"/><path class="cls-1" d="M27.68,42.1c14.51-.69,29.15-.69,43.67,0-14.52.68-29.16.68-43.67,0Z"/><path class="cls-1" d="M71.35,42c-3.9-.64-13.85-4-8.26-9,5.74-4.71,8.17,4.78,8.26,9Zm0,0c-.85-3.32-2.77-12.36-7.62-8.26-4.79,3.9,4.81,7.11,7.62,8.26Z"/><path class="cls-1" d="M71.62,42.28c-2.23,2.13-8.43,5.48-7.32,8.95-2.57-3.7,4.31-8,7.32-8.95Z"/><path class="cls-1" d="M74.13,42c0,2.59-2.92,2.49-3,0,.09-2.5,3-2.6,3,0Zm0,0c-.08-1.83-2-2-2,0s1.93,1.82,2,0Z"/><path class="cls-1" d="M71.35,42.1c-1.78-.77-7.26-3.8-4.94-6.13,2.77-1.79,4.56,4.23,4.94,6.13Zm0,0c-.65-1-2.95-6.27-4.31-5.36-1.18,1.15,3.42,4.49,4.31,5.36Z"/><path class="cls-1" d="M74.4,42c2.8-1.15,12.41-4.36,7.62-8.26-4.85-4.09-6.78,4.94-7.62,8.26Zm0,0c.08-4.23,2.51-13.73,8.26-9,5.58,5-4.36,8.37-8.26,9Z"/><path class="cls-1" d="M74.13,42.31c3,.91,9.88,5.25,7.31,8.95,1.12-3.46-5.08-6.82-7.31-8.95Z"/><path class="cls-1" d="M74.4,42.13c.87-.87,5.48-4.21,4.3-5.36-1.35-.9-3.65,4.31-4.3,5.36Zm0,0c.39-1.91,2.13-7.89,4.93-6.14,2.32,2.34-3.15,5.36-4.93,6.14Z"/><path class="cls-1" d="M74.13,42A46.53,46.53,0,0,1,88,42a46.86,46.86,0,0,1-13.84,0Z"/><path class="cls-1" d="M37.32,14A405.06,405.06,0,0,1,78,14a405.06,405.06,0,0,1-40.64,0Z"/><path class="cls-1" d="M18.76,54.85c5.15,5.87,11.25,6.46,17.43,1.8.76-.59,1.49-1.22,2.28-1.8-.63.74-1.3,1.44-2,2.18-5.76,5.59-13.65,4.85-17.75-2.18Z"/><path class="cls-1" d="M38.24,54.85c5.14,5.87,11.24,6.46,17.43,1.8.75-.59,1.48-1.22,2.27-1.8-.62.74-1.3,1.44-2,2.18-5.76,5.59-13.64,4.85-17.74-2.18Z"/><path class="cls-1" d="M57.71,54.85c5.15,5.87,11.24,6.46,17.43,1.8.75-.59,1.49-1.22,2.27-1.8-.62.74-1.3,1.44-2,2.18-5.76,5.59-13.64,4.85-17.74-2.18Z"/><path class="cls-1" d="M77.18,54.85c5.15,5.87,11.25,6.46,17.43,1.8.76-.59,1.49-1.22,2.28-1.8-.63.74-1.3,1.44-2,2.18-5.76,5.59-13.64,4.85-17.75-2.18Z"/><path class="cls-1" d="M18.76,58.92c5.15,5.87,11.25,6.46,17.43,1.8.76-.59,1.49-1.22,2.28-1.8-.63.74-1.3,1.44-2,2.18C30.75,66.69,22.87,66,18.76,58.92Z"/><path class="cls-1" d="M38.24,58.92c5.14,5.87,11.24,6.46,17.43,1.8.75-.59,1.48-1.22,2.27-1.8-.62.74-1.3,1.44-2,2.18C50.22,66.69,42.34,66,38.24,58.92Z"/><path class="cls-1" d="M57.71,58.92c5.15,5.87,11.24,6.46,17.43,1.8.75-.59,1.49-1.22,2.27-1.8-.62.74-1.3,1.44-2,2.18C69.69,66.69,61.81,66,57.71,58.92Z"/><path class="cls-1" d="M77.18,58.92c5.15,5.87,11.25,6.46,17.43,1.8.76-.59,1.49-1.22,2.28-1.8-.63.74-1.3,1.44-2,2.18C89.17,66.69,81.29,66,77.18,58.92Z"/><path class="cls-1" d="M18.76,73.41c5.15,5.87,11.25,6.46,17.43,1.8.76-.59,1.49-1.22,2.28-1.8-.63.74-1.3,1.45-2,2.18-5.76,5.59-13.64,4.86-17.75-2.18Z"/><path class="cls-1" d="M38.24,73.41c5.14,5.87,11.24,6.46,17.43,1.8.75-.59,1.48-1.22,2.27-1.8-.62.74-1.3,1.45-2,2.18-5.76,5.59-13.64,4.86-17.74-2.18Z"/><path class="cls-1" d="M57.71,73.41c5.15,5.87,11.24,6.46,17.43,1.8.75-.59,1.49-1.22,2.27-1.8-.62.74-1.3,1.45-2,2.18-5.76,5.59-13.64,4.86-17.74-2.18Z"/><path class="cls-1" d="M77.18,73.41c5.15,5.87,11.25,6.46,17.43,1.8.76-.59,1.49-1.22,2.28-1.8-.63.74-1.3,1.45-2,2.18-5.76,5.59-13.64,4.86-17.75-2.18Z"/><path class="cls-1" d="M18.76,77.48c5.15,5.87,11.25,6.46,17.43,1.8.76-.59,1.49-1.21,2.28-1.8-.63.74-1.3,1.45-2,2.18-5.76,5.59-13.64,4.86-17.75-2.18Z"/><path class="cls-1" d="M38.24,77.48c5.14,5.87,11.24,6.46,17.43,1.8.75-.59,1.48-1.21,2.27-1.8-.62.74-1.3,1.45-2,2.18-5.76,5.59-13.64,4.86-17.74-2.18Z"/><path class="cls-1" d="M57.71,77.48c5.15,5.87,11.24,6.46,17.43,1.8.75-.59,1.49-1.21,2.27-1.8-.62.74-1.3,1.45-2,2.18-5.76,5.59-13.64,4.86-17.74-2.18Z"/><path class="cls-1" d="M77.18,77.48c5.15,5.87,11.25,6.46,17.43,1.8.76-.59,1.49-1.21,2.28-1.8-.63.74-1.3,1.45-2,2.18-5.76,5.59-13.64,4.86-17.75-2.18Z"/><path class="cls-1" d="M38.27,25.48a4.3,4.3,0,0,1-.41,2.06c-.59,1-1.68.28-2-.56-1.42-3.09,2.29-6.55,2.4-1.5Zm0,0c0-.68-.33-2.07-1.1-2.05-.56.3-.59,1.42-.6,2.05s0,1.76.6,2.06c.77,0,1.11-1.37,1.1-2.06Z"/><path class="cls-1" d="M35.13,25.92c.89.64,2.36,2.63.41,2.9-1.6.13-4.15-2.08-3.08-3.7.92-.65,1.95.27,2.67.8Zm0,0c-.52-.45-1.8-1.08-2.29-.47-.19.91,2.28,3,3.15,2.64.51-.59-.33-1.73-.86-2.17Z"/><path class="cls-1" d="M33.44,28.61c.89-.1,2.24-.38,2.71.64.14,1.92-3.22,2.59-4.52,1.66-1.56-1.2.72-2.19,1.81-2.3Zm0,0c-.68.11-2,.69-1.83,1.44.58.74,3.76.19,4-.71-.12-.76-1.54-.85-2.22-.73Z"/><path class="cls-1" d="M34.42,31.63c.49-.74,1.14-1.95,2.23-1.66,1.56,1.16-.08,4.11-1.63,4.53-1.92.42-1.23-2-.6-2.87Zm0,0c-.35.59-.75,2-.07,2.33.93,0,2.55-2.76,2-3.56-.66-.4-1.64.64-2,1.23Z"/><path class="cls-1" d="M37.36,32.83c-.25-.86-.76-2.14.16-2.78,2-.63,3.72,4,1.75,4.8-1.12.11-1.55-1.2-1.91-2Zm0,0c.23.64,1,1.83,1.74,1.55.62-.7-.47-3.73-1.41-3.86-.73.25-.57,1.66-.33,2.31Z"/><path class="cls-1" d="M40.17,31.34c-.82-.36-2.13-.79-2-1.91.82-2,5.43-.29,4.8,1.75-.65.93-1.93.41-2.78.16Zm0,0c.93.46,3.46.09,1.68-1.08-.81-.45-2.4-1.21-3.24-.66-.28.72.91,1.51,1.56,1.74Z"/><path class="cls-1" d="M40.83,28.23c-.8.4-2,1.13-2.76.32-1-1.89,3.27-4.34,4.42-2.55.3,1.09-.91,1.74-1.66,2.23Zm0,0c.6-.33,1.63-1.32,1.23-2-.8-.49-3.59,1.12-3.56,2.06.37.67,1.74.27,2.33-.08Z"/><path class="cls-1" d="M38.46,29.07a1.54,1.54,0,0,1-3.08,0,1.54,1.54,0,0,1,3.08,0Zm0,0a1,1,0,1,0-2.08,0,1,1,0,1,0,2.08,0Z"/><path class="cls-1" d="M50.73,30.14a4.06,4.06,0,0,1-.41,2c-.59,1-1.68.28-2-.56-1.43-3.08,2.28-6.54,2.39-1.49Zm0,0c0-.69-.33-2.08-1.1-2.06-.56.3-.58,1.42-.6,2.06s0,1.75.6,2c.78,0,1.11-1.37,1.1-2Z"/><path class="cls-1" d="M47.59,30.57c.65.62,1.73,1.47,1.25,2.49-1.45,1.56-5.21-1.59-3.92-3.28.92-.66,1.95.26,2.67.79Zm0,0c-.52-.44-1.8-1.07-2.28-.47-.19.91,2.27,3,3.14,2.64.51-.58-.33-1.73-.86-2.17Z"/><path class="cls-1" d="M45.9,33.27c.89-.11,2.24-.39,2.71.64.26,2.11-4.56,3-5,.89.09-1.13,1.45-1.33,2.32-1.53Zm0,0c-.67.11-2,.68-1.83,1.44.58.73,3.76.18,4-.72-.12-.76-1.54-.85-2.22-.72Z"/><path class="cls-1" d="M46.88,36.29c.49-.75,1.15-2,2.23-1.66,1.56,1.15-.08,4.1-1.63,4.52-1.92.42-1.22-2-.6-2.86Zm0,0c-.35.59-.75,2-.07,2.33.93,0,2.55-2.77,2-3.56-.66-.4-1.64.63-2,1.23Z"/><path class="cls-1" d="M49.83,37.48c-.26-.86-.77-2.14.16-2.78,2-.62,3.71,4,1.75,4.8-1.13.11-1.56-1.2-1.91-2Zm0,0c.22.65,1,1.83,1.73,1.55.63-.69-.47-3.73-1.4-3.86-.74.25-.58,1.67-.33,2.31Z"/><path class="cls-1" d="M52.63,36c-.82-.35-2.13-.78-2-1.91.83-2,5.43-.29,4.8,1.75-.64.93-1.92.42-2.78.16Zm0,0c.64.25,2.06.4,2.31-.33-.14-.93-3.17-2-3.86-1.41-.28.73.9,1.51,1.55,1.74Z"/><path class="cls-1" d="M53.29,32.89c-.79.39-2,1.12-2.76.32-1-1.9,3.27-4.35,4.43-2.56.3,1.09-.92,1.74-1.67,2.24Zm0,0c.6-.34,1.63-1.33,1.23-2C53.73,30.41,50.93,32,51,33c.38.68,1.74.28,2.33-.07Z"/><path class="cls-1" d="M50.92,33.73a1.54,1.54,0,0,1-3.08,0,1.54,1.54,0,1,1,3.08,0Zm0,0a1,1,0,1,0-2.08,0,1,1,0,1,0,2.08,0Z"/><path class="cls-1" d="M88,48.75c.84-3.17,2.68-9.29,6.69-9.4a2.9,2.9,0,0,1,2.82,2.47c-.37,3.43-6.67,5.86-9.51,6.93Zm0,0a54.13,54.13,0,0,0,5.67-3.52c1.12-.92,2.68-1.92,2.86-3.4a1.34,1.34,0,0,0-.64-1c-3.6-2.52-6.71,5.42-7.89,7.91Z"/><path class="cls-1" d="M96.89,26.76a94.89,94.89,0,0,0-8.89,20,37,37,0,0,1,8.89-20Z"/><path class="cls-1" d="M91.3,39.1c-2.31-4.2-5.81-12.66.39-15.17a2,2,0,0,1,1.94.35c2.27,3-1.07,11.53-2.33,14.82Zm0,0c.52-2.61,3.59-12.71,1.39-14.26-6.16.68-2.86,10.59-1.39,14.26Z"/><path class="cls-1" d="M96.55,27.08c.31-2.83,2.53-14.74,7-10,4.21,5-2.66,9.09-7,10Zm0,0c2.82-1.39,6.78-3,7.36-6.46.11-1.27-.89-3.32-2.19-3.67-2.62.3-4.36,7.78-5.17,10.13Z"/><path class="cls-1" d="M93.11,34.36c1.94-4.31,7-8.57,11.75-5.4,4,3.65-9.73,5.28-11.75,5.4Zm0,0c1.1-.36,13.43-3,11.16-4.6-4.25-2.8-8.76,1.12-11.16,4.6Z"/><path class="cls-1" d="M17.58,87.74c-1.17-2.48-4.28-10.44-7.89-7.91a1.31,1.31,0,0,0-.63,1c.17,1.47,1.74,2.47,2.86,3.4a55.71,55.71,0,0,0,5.66,3.52Zm0,0c-2.83-1.08-9.14-3.51-9.5-6.93a2.91,2.91,0,0,1,2.82-2.48c4,.08,5.87,6.26,6.68,9.41Z"/><path class="cls-1" d="M8.7,65.75a36.9,36.9,0,0,1,8.88,20,94.78,94.78,0,0,0-8.88-20Z"/><path class="cls-1" d="M14.28,78.08c1.4-3.88,4.6-12.14-.67-14.21-.53-.14-.92-.14-1.16.39-.67,1.77-.17,3.91.06,5.8.45,2.7,1.12,5.36,1.77,8Zm0,0C13,74.81,9.68,66.24,12,63.26a2,2,0,0,1,1.94-.35c6.18,2.46,2.7,11,.38,15.17Z"/><path class="cls-1" d="M9,66.06c-.81-2.33-2.55-9.83-5.17-10.13-1.31.36-2.3,2.4-2.19,3.67C2.26,63,6.21,64.67,9,66.06Zm0,0c-4.38-.88-11.25-4.94-7-10,4.52-4.75,6.73,7.14,7,10Z"/><path class="cls-1" d="M12.48,73.34c-2.4-3.48-6.91-7.4-11.16-4.6-2.27,1.56,10,4.23,11.16,4.6Zm0,0c-2-.11-15.75-1.75-11.76-5.4,4.72-3.17,9.81,1.1,11.76,5.4Z"/></g></g></svg>