<svg xmlns="http://www.w3.org/2000/svg" viewBox="0 0 78.57 90.7"><defs><style>.cls-1{fill:#9b8870;}</style></defs><title>car</title><g id="Слой_2" data-name="Слой 2"><g id="Слой_1-2" data-name="Слой 1"><path class="cls-1" d="M28.1,13.4a18.25,18.25,0,0,1,1.39-4.81,6.31,6.31,0,0,1,3.64-3.38,12.67,12.67,0,0,1,5-.4L43,5.12,48,5.37A19.73,19.73,0,0,1,52.92,6a5.2,5.2,0,0,1,2.17,1.3,5.4,5.4,0,0,1,1.3,2.18,14.22,14.22,0,0,1,.44,5,.23.23,0,0,1-.23.21.23.23,0,0,1-.21-.21v0a14.6,14.6,0,0,0-.72-4.73,4.4,4.4,0,0,0-3-2.83,22.45,22.45,0,0,0-4.7-.49l-5-.21L38,5.83a13.57,13.57,0,0,0-4.59.29A5.42,5.42,0,0,0,30.23,9a19,19,0,0,0-1.62,4.53v0a.26.26,0,0,1-.32.18A.24.24,0,0,1,28.1,13.4Z"/><path class="cls-1" d="M28.51,13.71A2.54,2.54,0,0,1,30,12.47a6.75,6.75,0,0,1,1.8-.39l3.58-.29c1.19-.06,2.38-.23,3.58-.22s2.39.06,3.58.14l7.14.47,3.58.25a6.62,6.62,0,0,1,1.8.32A2.35,2.35,0,0,1,56.47,14a.23.23,0,0,1-.12.29.24.24,0,0,1-.27-.09l0,0c-.56-.92-1.78-1-2.89-1l-3.58-.06c-2.39-.05-4.78-.24-7.14-.33-1.18-.09-2.35-.16-3.52-.17s-2.34.16-3.52.15l-3.54.12A3.45,3.45,0,0,0,29,13.93l0,0a.26.26,0,0,1-.36.07A.27.27,0,0,1,28.51,13.71Z"/><path class="cls-1" d="M13.6,44.09a21.42,21.42,0,0,0-2.86-3.92A14,14,0,0,1,8.57,35.7c-.47-1.59-.82-3.19-1.15-4.81a8,8,0,0,1-.1-2.49A8.52,8.52,0,0,1,8.11,26a17.33,17.33,0,0,1,2.55-4.24,6.29,6.29,0,0,1,4.51-1.92,6,6,0,0,1,4.51,1.95,6.4,6.4,0,0,1,1.69,4.66.22.22,0,0,1-.23.21.22.22,0,0,1-.2-.22v0c-.07-3.2-2.85-5.89-5.77-5.65a5.58,5.58,0,0,0-3.79,1.69,16.6,16.6,0,0,0-2.32,4,7.47,7.47,0,0,0-.71,2.05,7,7,0,0,0,.08,2.17c.29,1.54.69,3.18,1.07,4.7a13.28,13.28,0,0,0,1.89,4.26c.86,1.31,2.1,2.56,2.69,4.2v0a.27.27,0,0,1-.16.33A.26.26,0,0,1,13.6,44.09Z"/><path class="cls-1" d="M62.05,23a7.78,7.78,0,0,1,8.08-3.4,7.88,7.88,0,0,1,4,2.27,7.61,7.61,0,0,1,2,4.08c.52,3-.35,6.06-1.07,9s-1.78,5.94-4.15,8a.21.21,0,0,1-.3,0,.21.21,0,0,1,0-.29l0,0a11.08,11.08,0,0,0,2.27-3.7,26.13,26.13,0,0,0,1.26-4.23c.64-2.91,1.45-5.85.93-8.54a6.61,6.61,0,0,0-1.68-3.55,7.42,7.42,0,0,0-3.41-2,7.34,7.34,0,0,0-7.44,2.71l0,0a.25.25,0,0,1-.36.05A.25.25,0,0,1,62.05,23Z"/><path class="cls-1" d="M20.25,25.27a6.1,6.1,0,0,1,3.1-5,12.75,12.75,0,0,1,5.76-1.58c4-.28,7.9-.39,11.85-.4s7.91,0,11.86.24a33.92,33.92,0,0,1,5.92.64,7.74,7.74,0,0,1,4.93,3.3.21.21,0,0,1-.08.3.22.22,0,0,1-.29-.06v0a7.17,7.17,0,0,0-4.74-2.79,33.11,33.11,0,0,0-5.78-.43c-3.94-.11-7.87-.21-11.8-.13s-7.88.13-11.78.32a12.22,12.22,0,0,0-5.4,1.3,5.45,5.45,0,0,0-3,4.33v0a.25.25,0,0,1-.27.25A.26.26,0,0,1,20.25,25.27Z"/><path class="cls-1" d="M19.48,20.88a83.36,83.36,0,0,1,.46-9.74c.19-1.62.37-3.22.69-4.83a6.06,6.06,0,0,1,2.49-4.2,8.88,8.88,0,0,1,2.31-.88C26.22,1,27,.85,27.82.7A43.69,43.69,0,0,1,32.66.16C35.91,0,39.16,0,42.4.05s6.49.25,9.72.56A28.45,28.45,0,0,1,57,1.33,5.06,5.06,0,0,1,59.1,2.57a6.07,6.07,0,0,1,1.29,2.11,34.73,34.73,0,0,1,1.19,4.75c.32,1.59.61,3.18.87,4.79q.77,4.81,1.12,9.68a.22.22,0,0,1-.43,0h0c-.35-3.22-.82-6.43-1.44-9.59-.29-1.59-.6-3.17-1-4.75A33.87,33.87,0,0,0,59.52,5a4.21,4.21,0,0,0-2.86-2.75A28.35,28.35,0,0,0,52,1.62c-3.21-.3-6.43-.47-9.64-.52s-6.45-.08-9.65.09A38.88,38.88,0,0,0,28,1.71c-.78.13-1.55.3-2.31.5A8.14,8.14,0,0,0,23.62,3a5.11,5.11,0,0,0-2.11,3.54C21.18,8,21,9.64,20.76,11.23A81.67,81.67,0,0,0,20,20.87h0a.26.26,0,0,1-.26.26A.26.26,0,0,1,19.48,20.88Z"/><path class="cls-1" d="M7.89,28.36a3.78,3.78,0,0,0,2.75,0,4.07,4.07,0,0,0,2.13-1.81,4,4,0,0,0,.28-2.79,3.79,3.79,0,0,0-1.56-2.29.21.21,0,0,1-.07-.29.22.22,0,0,1,.25-.08l.07,0a3.61,3.61,0,0,1,1.36.95,4.68,4.68,0,0,1,.83,1.48A4.36,4.36,0,0,1,11,29.23a4.93,4.93,0,0,1-1.7.18,3.75,3.75,0,0,1-1.57-.56l-.07-.05a.25.25,0,0,1,.24-.44Z"/><path class="cls-1" d="M71.83,20.63a5.48,5.48,0,0,0-1.33,2.5,3,3,0,0,0,.65,2.66,7.41,7.41,0,0,0,2.44,1.55,5.35,5.35,0,0,0,1.38.42,1.63,1.63,0,0,0,1.25-.32.21.21,0,0,1,.31.28l0,.06a2.15,2.15,0,0,1-1.62.7,6.61,6.61,0,0,1-1.65-.31,6.5,6.5,0,0,1-2.85-1.68,3.71,3.71,0,0,1-.88-1.69A3.67,3.67,0,0,1,69.56,23a5.1,5.1,0,0,1,1.86-2.66l.06,0a.25.25,0,0,1,.36,0A.27.27,0,0,1,71.83,20.63Z"/><path class="cls-1" d="M10.59,43.63c10,.29,20-.61,30.05-.87s20.06,0,30.08.35a.21.21,0,0,1,.21.22.21.21,0,0,1-.21.21h0l-7.52.07H55.66c-5,0-10,0-15,.21s-10,.43-15,.56c-2.51.06-5,.11-7.54.1s-5-.15-7.54-.32h0a.26.26,0,0,1,0-.52Z"/><path class="cls-1" d="M12.51,49.78q14.39-1.28,28.85-1.54t28.89.21a.23.23,0,0,1,.21.23.24.24,0,0,1-.22.21h0L55.79,49c-4.8.07-9.61.09-14.41.27s-9.6.27-14.4.44l-14.42.57h0a.26.26,0,0,1-.27-.25A.26.26,0,0,1,12.51,49.78Z"/><path class="cls-1" d="M71.9,43a2.54,2.54,0,0,1,1.16,0,.91.91,0,0,1,.65,1,7.75,7.75,0,0,1-.91,2,15.73,15.73,0,0,1-1.12,1.83,3.89,3.89,0,0,1-1.62,1.51.19.19,0,0,1-.26-.11.2.2,0,0,1,0-.21l.08-.09a2.56,2.56,0,0,0,.57-.77,7.69,7.69,0,0,0,.46-.86c.29-.63.63-1.21.93-1.81l.49-.88c.18-.3.32-.6.39-.7s.19,0,.08-.16-.48-.21-.83-.29l-.13,0a.26.26,0,0,1-.19-.3A.25.25,0,0,1,71.9,43Z"/><path class="cls-1" d="M10.92,44.16c-.1-.12-.35-.11-.56,0a.76.76,0,0,0-.28.66,4.26,4.26,0,0,0,.64,1.62,18.51,18.51,0,0,0,2.09,3,.21.21,0,0,1,0,.29.22.22,0,0,1-.22,0l-.11-.05a5.39,5.39,0,0,1-.83-.54c-.24-.21-.47-.43-.7-.65A7.17,7.17,0,0,1,9.81,47c-.15-.28-.29-.53-.44-.86a2.76,2.76,0,0,1-.24-1.22,1.64,1.64,0,0,1,.73-1.32,1.37,1.37,0,0,1,.72-.17.78.78,0,0,1,.66.33l.08.13a.25.25,0,0,1-.08.34A.24.24,0,0,1,10.92,44.16Z"/><path class="cls-1" d="M18.86,43.71c-.06.89,0,1.78,0,2.67s.13,1.78.3,2.65a.19.19,0,0,1-.15.23.19.19,0,0,1-.18-.06l-.1-.11a5.6,5.6,0,0,1-.4-.64l-.25-.65a5.69,5.69,0,0,1-.27-1.34,5.25,5.25,0,0,1,.06-1.37l.14-.68a5.07,5.07,0,0,1,.29-.69l.09-.15a.23.23,0,0,1,.32-.07A.21.21,0,0,1,18.86,43.71Z"/><path class="cls-1" d="M65,43.19c0,.79.12,1.56.11,2.34s.05,1.55.12,2.33a.17.17,0,0,1-.16.19A.16.16,0,0,1,64.9,48l-.12-.14c-.15-.2-.21-.39-.33-.58l-.19-.57a4.64,4.64,0,0,1-.15-2.22l.12-.58a4.36,4.36,0,0,1,.25-.61l.11-.19a.21.21,0,0,1,.3-.08A.22.22,0,0,1,65,43.19Z"/><path class="cls-1" d="M27.77,44.82c4.55-.49,9.11-.91,13.68-1s9.15-.13,13.72,0a.21.21,0,0,1,.21.22.22.22,0,0,1-.2.21h0c-1.14.1-2.28.12-3.43.2l-3.41.12c-2.27.1-4.54.13-6.81.27s-4.53.19-6.8.27l-3.42.14c-1.14,0-2.28.09-3.43.09h0a.27.27,0,0,1-.26-.26A.25.25,0,0,1,27.77,44.82Z"/><path class="cls-1" d="M29.33,44.24a8.95,8.95,0,0,0-.12,4.2.18.18,0,0,1-.13.21.16.16,0,0,1-.16,0l-.15-.13a3.71,3.71,0,0,1-.39-.52l-.23-.54a3.23,3.23,0,0,1,0-2.21c.08-.18.15-.36.24-.54a3,3,0,0,1,.4-.5L29,44a.21.21,0,0,1,.3,0A.2.2,0,0,1,29.33,44.24Z"/><path class="cls-1" d="M56.19,43.83c-.11.64-.09,1.27-.17,1.91S56,47,56,47.64a.18.18,0,0,1-.16.18.17.17,0,0,1-.14-.06l-.14-.17a4.41,4.41,0,0,1-.3-.5l-.16-.47a2.89,2.89,0,0,1,.06-1.84l.19-.46a2.69,2.69,0,0,1,.33-.47l.17-.19a.21.21,0,0,1,.29,0A.18.18,0,0,1,56.19,43.83Z"/><path class="cls-1" d="M27.81,47.46a109.91,109.91,0,0,1,16.62-.55A132.83,132.83,0,0,0,61,46.34a.21.21,0,0,1,.24.18.21.21,0,0,1-.17.24h0c-1.37.31-2.75.49-4.13.69s-2.78.26-4.18.35c-2.78.17-5.56.13-8.33.15s-5.52-.09-8.27-.11c-1.38,0-2.75,0-4.13,0L30,47.9c-.68,0-1.37.07-2.07.08h0a.26.26,0,0,1,0-.52Z"/><path class="cls-1" d="M16.16,49.14q.45,2.74,1,5.47l.51,2.73a1.24,1.24,0,0,0,.2.58.72.72,0,0,0,.56.12l1.37-.15,2.76-.35c.23,0,.49,0,.6-.14s.12-.33.13-.57l.08-1.38c.11-1.85.2-3.7.27-5.56a.21.21,0,0,1,.22-.2.21.21,0,0,1,.21.19v0c.1.94.11,1.86.17,2.8l0,2.78c0,.47,0,.93,0,1.4,0,.11,0,.22,0,.44a1.38,1.38,0,0,1-.42.8,1.46,1.46,0,0,1-.76.34l-.37.05-2.75.4-1.41.14a2.35,2.35,0,0,1-.58,0,1.47,1.47,0,0,1-.8-.41,1.9,1.9,0,0,1-.46-1.09c-.16-.91-.35-1.82-.46-2.75L15.86,52c-.07-.94-.19-1.86-.22-2.8v0a.26.26,0,0,1,.52,0Z"/><path class="cls-1" d="M61.2,48.67c.2,2.68.49,5.35.74,8l-.17-.12A7.92,7.92,0,0,1,65,56.8a3.23,3.23,0,0,0,1.55-.09,1.48,1.48,0,0,0,.62-.38,1.7,1.7,0,0,0,.17-.72l.39-3.22.31-2.88a.22.22,0,0,1,0-.43.42.42,0,0,1,.41.19.82.82,0,0,1,.12.3,2.7,2.7,0,0,1,0,.47v.81c0,.55,0,1.09,0,1.63-.07,1.09-.09,2.17-.2,3.25l0,.44a1.7,1.7,0,0,1-.29.75,2.41,2.41,0,0,1-1.07.74,4.27,4.27,0,0,1-2,.16,9.13,9.13,0,0,0-2.81-.28A.89.89,0,0,1,61,57a1.16,1.16,0,0,1,0-.18v0l-.17-2-.07-2c-.06-1.34,0-2.68,0-4v-.06a.26.26,0,0,1,.27-.25A.25.25,0,0,1,61.2,48.67Z"/><path class="cls-1" d="M30.19,37.26c-.35.54-.74,1.1-1.07,1.63s-.48,1.18-.05,1.5a1.26,1.26,0,0,0,1.54-.17,3.72,3.72,0,0,0,.87-1.63.18.18,0,0,1,.23-.12.19.19,0,0,1,.13.2,2.91,2.91,0,0,0,0,1.5.89.89,0,0,0,1.15.49,1.19,1.19,0,0,0,.84-1.07,2.06,2.06,0,0,0-.47-1.41.13.13,0,0,1,0-.17.1.1,0,0,1,.09,0,1.5,1.5,0,0,0,1.32-.6A1.3,1.3,0,0,0,35,36a1.57,1.57,0,0,0-1.19-.82c-.47-.08-1.06.31-.94.71l-.22-.06a1.3,1.3,0,0,0,.09-1.5,2.48,2.48,0,0,0-1.09-1.23.86.86,0,0,0-1.17.62,2.79,2.79,0,0,0,.18,1.64l-.36.08s-.08-.06-.16,0-.12.13-.13.27a8.17,8.17,0,0,0,0,1,1.63,1.63,0,0,0,.87,1.49.22.22,0,0,1,.12.28.21.21,0,0,1-.26.13h0a1.7,1.7,0,0,1-.94-.74,3,3,0,0,1-.38-1.12,7.9,7.9,0,0,1-.08-1.13,1,1,0,0,1,.54-.84.94.94,0,0,1,.62-.06.82.82,0,0,1,.58.64.58.58,0,0,1-1.13.25h0a3.29,3.29,0,0,1-.24-2.13,1.89,1.89,0,0,1,.82-1.1A1.71,1.71,0,0,1,32,32.24a3.27,3.27,0,0,1,1.61,1.68,2.84,2.84,0,0,1,.28,1.21,1.87,1.87,0,0,1-.62,1.44.87.87,0,0,1-1.22-.1.92.92,0,0,1-.16-.27v0A1.38,1.38,0,0,1,32,35.12a1.72,1.72,0,0,1,.54-.61,2,2,0,0,1,1.36-.36,2.57,2.57,0,0,1,2,1.35,2.33,2.33,0,0,1,.26,1.31A2.37,2.37,0,0,1,35.66,38a2.52,2.52,0,0,1-2.27,1l.82-1.5a3.09,3.09,0,0,1,.69,2.15,2.26,2.26,0,0,1-.47,1.22,2.22,2.22,0,0,1-1.08.74,2.08,2.08,0,0,1-1.39,0,1.93,1.93,0,0,1-1-1,3.4,3.4,0,0,1-.06-2.06l1.52.36a4.82,4.82,0,0,1-1.19,2,2.09,2.09,0,0,1-2.65.17,1.54,1.54,0,0,1-.51-1.39,2.77,2.77,0,0,1,.46-1.1c.41-.58.81-1,1.24-1.58v0a.27.27,0,0,1,.37,0A.28.28,0,0,1,30.19,37.26Z"/><path class="cls-1" d="M34.4,37.59a1.38,1.38,0,0,1,2.09-.76,1.33,1.33,0,0,1-.1,2.13.16.16,0,0,1-.21-.05.15.15,0,0,1,0-.18,1.46,1.46,0,0,1,1.44-.55,1.42,1.42,0,0,1,1.07,1.08,1.69,1.69,0,0,1-.45,1.44,2.43,2.43,0,0,1-1.34.68A3.65,3.65,0,0,1,34,40.77a2.34,2.34,0,0,1-.73-2.84.22.22,0,0,1,.29-.09.22.22,0,0,1,.11.24l0,.07a1.84,1.84,0,0,0,.86,2,3.11,3.11,0,0,0,2.19.25,1.51,1.51,0,0,0,.76-.4.73.73,0,0,0,.19-.49A.41.41,0,0,0,37,39.3l-1.1-1.18s.16-.06.2-.23a.5.5,0,0,0-.06-.41.52.52,0,0,0-.5-.17.86.86,0,0,0-.61.39l0,.09a.25.25,0,0,1-.34.09A.26.26,0,0,1,34.4,37.59Z"/><path class="cls-1" d="M29.6,35.76a3.93,3.93,0,0,0-.08-2.18A2.11,2.11,0,0,0,28,32.22a.65.65,0,0,0-.8.35A3,3,0,0,0,27,33.65a3.3,3.3,0,0,0,.77,2.06l-.2.16a3.16,3.16,0,0,0-1.11-1,1.55,1.55,0,0,0-1.42,0A1,1,0,0,0,24.42,36c.12.45.61.84,1,.67l.05.24c-.56,0-.87.79-.69,1.32a1.58,1.58,0,0,0,1.25,1.13,2.35,2.35,0,0,0,1.72-.4,5.7,5.7,0,0,0,1.33-1.31.22.22,0,0,1,.31,0,.23.23,0,0,1,0,.28l0,0a5.46,5.46,0,0,1-1.33,1.57,2.91,2.91,0,0,1-2.21.63,2.42,2.42,0,0,1-2-1.67,2.11,2.11,0,0,1,.08-1.5,1.68,1.68,0,0,1,1.49-1,.86.86,0,0,1,.86.84.87.87,0,0,1-.53.8h0a1.67,1.67,0,0,1-1.55-.2,2.08,2.08,0,0,1-.8-1.11,1.89,1.89,0,0,1,.19-1.46,2.24,2.24,0,0,1,1-.88,2.69,2.69,0,0,1,1.19-.27,2.75,2.75,0,0,1,1.14.31,4,4,0,0,1,1.48,1.34l0,0a.9.9,0,0,1-.21,1.25A.91.91,0,0,1,27,36.39a4.34,4.34,0,0,1-1-2.71,3.51,3.51,0,0,1,.29-1.48,1.46,1.46,0,0,1,.85-.8,1.79,1.79,0,0,1,1-.06,2.82,2.82,0,0,1,2.09,2,4.12,4.12,0,0,1-.09,2.56v0a.25.25,0,0,1-.33.16A.27.27,0,0,1,29.6,35.76Z"/><path class="cls-1" d="M26.55,35.1a10.06,10.06,0,0,1-.91-3.69,6.12,6.12,0,0,0-.51-1.74A3.81,3.81,0,0,0,24,28.33c-.24-.18-.39.07-.4.37a6.91,6.91,0,0,0,0,.91,5.25,5.25,0,0,0,.52,1.73,4.93,4.93,0,0,0,2.56,2.43.22.22,0,0,1,.12.28.2.2,0,0,1-.23.13h-.06a4.68,4.68,0,0,1-1.84-.85,6.12,6.12,0,0,1-1.37-1.58,5.46,5.46,0,0,1-.71-2,5,5,0,0,1,0-1.1,1.55,1.55,0,0,1,.37-1,1.23,1.23,0,0,1,.93-.41,1.33,1.33,0,0,1,.68.22,4.59,4.59,0,0,1,1.55,1.74,5.66,5.66,0,0,1,.53,2.07l.11,1.85A5.53,5.53,0,0,0,27,34.81l0,.08a.25.25,0,0,1-.46.21Z"/><path class="cls-1" d="M26.69,35.09q-1.85-2.42-3.75-4.79l-1.89-2.38a8.87,8.87,0,0,0-1-1.11,2.63,2.63,0,0,0-.61-.39c-.13-.06-.15-.06-.2,0a.79.79,0,0,0-.07.32,2.41,2.41,0,0,0,.52,1.33c.26.43.55.84.85,1.25a18.7,18.7,0,0,0,2,2.27,18.66,18.66,0,0,0,2.3,1.95,4.6,4.6,0,0,0,2.63,1.11.21.21,0,0,1,.23.2.2.2,0,0,1-.18.22h0a4.85,4.85,0,0,1-3.08-1,20.62,20.62,0,0,1-2.52-1.88,15.78,15.78,0,0,1-2.14-2.33c-.32-.42-.63-.85-.92-1.3a3.24,3.24,0,0,1-.7-1.92,1.34,1.34,0,0,1,.05-.35,1.48,1.48,0,0,1,.18-.46,1.17,1.17,0,0,1,.9-.55,1.31,1.31,0,0,1,.6.13,4.09,4.09,0,0,1,.86.55,9,9,0,0,1,1.13,1.27c.61.81,1.26,1.58,1.84,2.42l1.76,2.49c.55.86,1.14,1.69,1.65,2.57l0,0a.26.26,0,0,1-.43.29Z"/><path class="cls-1" d="M53.29,37c.36.57.71,1.09,1.06,1.68a2.64,2.64,0,0,1,.36,1,1.23,1.23,0,0,1-.46,1.07,1.67,1.67,0,0,1-2.09-.22,4.13,4.13,0,0,1-.94-1.82l.35-.08a3.07,3.07,0,0,1-.09,1.69,1.27,1.27,0,0,1-.65.64,1.32,1.32,0,0,1-.9,0,1.48,1.48,0,0,1-1-1.34A2.26,2.26,0,0,1,49.46,38l.11.2a1.72,1.72,0,0,1-1.52-.71,1.56,1.56,0,0,1-.17-1.65,1.83,1.83,0,0,1,1.38-1,1.26,1.26,0,0,1,.86.21.77.77,0,0,1,.37.84.15.15,0,0,1-.18.09l-.05,0a1.57,1.57,0,0,1-.19-1.83,2.81,2.81,0,0,1,1.23-1.41,1.18,1.18,0,0,1,1,0,1.44,1.44,0,0,1,.62.78,3.1,3.1,0,0,1-.15,1.87h0a.19.19,0,0,1-.23.13.19.19,0,0,1-.13-.22.48.48,0,0,1,.68-.32.68.68,0,0,1,.37.58,7.66,7.66,0,0,1,0,1.07,2,2,0,0,1-1.11,1.87.22.22,0,0,1-.28-.12.22.22,0,0,1,.09-.27l0,0a1.64,1.64,0,0,0,.66-1.51,8.28,8.28,0,0,0-.08-.93c0-.09-.12-.11,0,0a.11.11,0,0,0,.11,0s.23-.12.25-.29l-1.12-.24a2.26,2.26,0,0,0,.08-1.36.49.49,0,0,0-.25-.29.26.26,0,0,0-.21,0,2.19,2.19,0,0,0-.71,1,1.32,1.32,0,0,0-.11.53c0,.13,0,.13.06.15l-1.39.39a.4.4,0,0,0,0,.27s0,0,0,0-.06,0-.18,0a.79.79,0,0,0-.56.42.51.51,0,0,0,.09.54.69.69,0,0,0,.55.3h0a.9.9,0,0,1,1,.8.91.91,0,0,1-.22.7,1.27,1.27,0,0,0-.32.84.45.45,0,0,0,.31.45c.22,0,.19.06.3-.09a2.42,2.42,0,0,0,.07-1.12v-.06a.78.78,0,0,1,.67-.88.79.79,0,0,1,.86.58,3.37,3.37,0,0,0,.64,1.45.83.83,0,0,0,1,.23.38.38,0,0,0,.21-.35,1.69,1.69,0,0,0-.2-.75l-.9-1.73,0,0a.27.27,0,0,1,.11-.35A.27.27,0,0,1,53.29,37Z"/><path class="cls-1" d="M48.14,37.7a1,1,0,0,0-1.36-.57,1,1,0,0,0,0,1.56l-.21.23a1.16,1.16,0,0,0-1.13-.47,1.19,1.19,0,0,0-.9.86A1.36,1.36,0,0,0,45,40.55a2.22,2.22,0,0,0,1.23.59,3.41,3.41,0,0,0,2.65-.6,1.92,1.92,0,0,0,.53-2.39.22.22,0,0,1,.07-.3.22.22,0,0,1,.28,0l0,0a2.43,2.43,0,0,1-.4,3.24,4.07,4.07,0,0,1-3.35,1,3.12,3.12,0,0,1-1.8-.88,2.37,2.37,0,0,1-.65-2.18,2.16,2.16,0,0,1,1.72-1.64,2.11,2.11,0,0,1,2.13.91l0,.07a.8.8,0,0,1-.24,1.11.78.78,0,0,1-.89,0A1.84,1.84,0,0,1,45.53,38a1.77,1.77,0,0,1,.78-1.47,1.58,1.58,0,0,1,1.55,0,1.4,1.4,0,0,1,.79,1.13v.07a.27.27,0,0,1-.25.27A.26.26,0,0,1,48.14,37.7Z"/><path class="cls-1" d="M52.94,35.86a4.39,4.39,0,0,1,.21-2.43A2.56,2.56,0,0,1,55,31.88a1.25,1.25,0,0,1,.66.06.86.86,0,0,1,.49.5,3.22,3.22,0,0,1,.17,1.22,3.57,3.57,0,0,1-.88,2.22.13.13,0,0,1-.18,0,.12.12,0,0,1,0-.17,3.38,3.38,0,0,1,1.22-1.06,1.86,1.86,0,0,1,1.61,0,1.23,1.23,0,0,1,.77,1.4,1.1,1.1,0,0,1-1.35.84.14.14,0,0,1-.08-.17.13.13,0,0,1,.12-.08,1,1,0,0,1,.87.61,1.47,1.47,0,0,1,.09,1,1.85,1.85,0,0,1-1.46,1.35,2.83,2.83,0,0,1-2-.39,6.5,6.5,0,0,1-1.48-1.33.21.21,0,0,1,0-.3.21.21,0,0,1,.29,0l0,0a6.59,6.59,0,0,0,1.48,1.07,2.23,2.23,0,0,0,1.48.16,1,1,0,0,0,.73-.81c.09-.31-.29-.56-.08-.43L57.86,36s-.11,0-.06,0a.35.35,0,0,0,.08-.16s0-.1-.23-.2a1,1,0,0,0-.72,0,2.24,2.24,0,0,0-.84.73l-1.4-1.13a2.55,2.55,0,0,0,.65-1.57,3.59,3.59,0,0,0-.05-.83c0-.06.06,0,.06,0a.32.32,0,0,0-.2,0,1.79,1.79,0,0,0-1.31,1,3.89,3.89,0,0,0-.39,2v.05a.27.27,0,0,1-.25.27A.27.27,0,0,1,52.94,35.86Z"/><path class="cls-1" d="M56.07,34.81a8.09,8.09,0,0,0,1-3.45,5.85,5.85,0,0,1,.6-1.81,4,4,0,0,1,1.3-1.4.43.43,0,0,1,.56,0,.84.84,0,0,1,.17.5,5,5,0,0,1,0,.95,5.61,5.61,0,0,1-.51,1.84,5.85,5.85,0,0,1-2.64,2.7.21.21,0,0,1-.23-.35l.06,0a6,6,0,0,0,1.21-1.26,4.92,4.92,0,0,0,.78-1.44,5.7,5.7,0,0,0,.31-1.54,6.4,6.4,0,0,0,0-.76c0-.07-.07-.1.08.11a.64.64,0,0,0,.51.22.58.58,0,0,0,.26-.05,3,3,0,0,0-.93,1A6.34,6.34,0,0,0,58,31.52c-.17.57-.29,1.19-.5,1.83a4.66,4.66,0,0,1-1,1.75l0,0a.26.26,0,0,1-.36,0A.25.25,0,0,1,56.07,34.81Z"/><path class="cls-1" d="M56,34.76q2-2.31,3.9-4.66l1.94-2.35a7.38,7.38,0,0,1,1.05-1.12,2.91,2.91,0,0,1,.67-.42.51.51,0,0,1,.24-.05.26.26,0,0,1,.23.15,1,1,0,0,1,.1.42,2.65,2.65,0,0,1-.54,1.46c-.26.44-.55.86-.85,1.27a19.19,19.19,0,0,1-2,2.33,20.05,20.05,0,0,1-2.32,2,4.79,4.79,0,0,1-2.83,1.29.21.21,0,0,1-.21-.22.22.22,0,0,1,.18-.21h.05A4.91,4.91,0,0,0,58,33.2a20.33,20.33,0,0,0,2.1-2.05c.62-.75,1.27-1.47,1.82-2.28.27-.4.54-.8.78-1.22a1.8,1.8,0,0,0,.37-.87v0s0,0,.05.09a.77.77,0,0,0,.6.35c.27,0,.29-.07.24,0a1.76,1.76,0,0,0-.43.25,6.85,6.85,0,0,0-.92,1c-.66.76-1.29,1.56-2,2.3l-2.06,2.24c-.73.72-1.42,1.46-2.18,2.15l0,0a.26.26,0,0,1-.37,0A.25.25,0,0,1,56,34.76Z"/><path class="cls-1" d="M3.91,67.7c-.5,1.92-1,3.85-1.59,5.73S1.07,77.19.41,79.06a.21.21,0,0,1-.27.12A.2.2,0,0,1,0,79v-.08c0-.52.15-1,.22-1.5L.56,76c.2-1,.49-1.89.75-2.83s.57-1.86.93-2.77L2.77,69c.21-.46.38-.92.63-1.37l.05-.09a.25.25,0,0,1,.34-.1A.26.26,0,0,1,3.91,67.7Z"/><path class="cls-1" d="M2.36,69.81a4.14,4.14,0,0,1,1.77-1.4,4,4,0,0,1,2.22,0,3.19,3.19,0,0,1,1.9,1.13,2.3,2.3,0,0,1,.31,2.23.2.2,0,0,1-.26.1.21.21,0,0,1-.13-.18v-.13a1.62,1.62,0,0,0-.2-.87A1.53,1.53,0,0,0,7.51,70a3.22,3.22,0,0,0-1.4-.63,4.65,4.65,0,0,0-1.64-.11,2.15,2.15,0,0,0-.79.28,6.4,6.4,0,0,0-.89.52l-.11.07a.24.24,0,0,1-.34-.08A.26.26,0,0,1,2.36,69.81Z"/><path class="cls-1" d="M8.67,72.06c-.53,1.4-1,2.81-1.61,4.16S5.88,78.94,5.27,80.3a.21.21,0,0,1-.27.11.2.2,0,0,1-.12-.2V80.1c0-.4.13-.76.19-1.14l.3-1.07c.19-.71.46-1.38.71-2.06a20.8,20.8,0,0,1,.91-2l.52-1c.22-.31.39-.64.65-1l.08-.1a.24.24,0,0,1,.34,0A.26.26,0,0,1,8.67,72.06Z"/><path class="cls-1" d="M.85,78.63a2.67,2.67,0,0,0,2,2,2.69,2.69,0,0,0,2.61-1,.18.18,0,0,1,.27,0,.19.19,0,0,1,.09.19l0,.14a2.06,2.06,0,0,1-.42.85,3.47,3.47,0,0,1-.76.6,2.88,2.88,0,0,1-2,.33,2.94,2.94,0,0,1-1.72-1,3.55,3.55,0,0,1-.49-.84,2.2,2.2,0,0,1-.08-.95l0-.16a.23.23,0,0,1,.27-.19A.25.25,0,0,1,.85,78.63Z"/><path class="cls-1" d="M15.71,69.19c-.42,1-.71,2-1.07,2.92s-.61,2-.82,3a.19.19,0,0,1-.22.15.17.17,0,0,1-.15-.14l0-.14a6.39,6.39,0,0,1-.11-.85l0-.8a7.53,7.53,0,0,1,.91-3l.41-.68a5.67,5.67,0,0,1,.56-.65l.13-.11a.23.23,0,0,1,.36.27Z"/><path class="cls-1" d="M15,69.26a7.05,7.05,0,0,1,2.58-1.1,2.45,2.45,0,0,1,1.41.2,2,2,0,0,1,1,1.06.2.2,0,0,1-.11.24.2.2,0,0,1-.17,0l-.14-.1a1.37,1.37,0,0,0-.54-.27,1.58,1.58,0,0,0-.47-.1,4.07,4.07,0,0,0-.87,0c-.31,0-.63.14-1,.21a6,6,0,0,0-.63.17c-.24,0-.47.1-.74.1h-.2a.24.24,0,0,1-.23-.23A.23.23,0,0,1,15,69.26Z"/><path class="cls-1" d="M19.92,70c-.1.92-.11,1.82-.27,2.72s-.27,1.8-.4,2.7a.18.18,0,0,1-.21.16.18.18,0,0,1-.15-.11l-.06-.16a5.05,5.05,0,0,1-.18-.72l-.07-.68a7,7,0,0,1,.28-2.58l.2-.65A6,6,0,0,1,19.4,70l.1-.16a.24.24,0,0,1,.32-.06A.25.25,0,0,1,19.92,70Z"/><path class="cls-1" d="M13.72,75.2c.14.45.72.71,1.28.81a7.29,7.29,0,0,0,1.74.17,3.6,3.6,0,0,0,1.64-.52,2.17,2.17,0,0,0,1-1.28.2.2,0,0,1,.25-.14.2.2,0,0,1,.15.17v.12a2.11,2.11,0,0,1-.24,1.06,3.38,3.38,0,0,1-.71.85,3.5,3.5,0,0,1-2,.79,5,5,0,0,1-2-.28,4.13,4.13,0,0,1-1-.5,1.55,1.55,0,0,1-.6-1v-.14a.25.25,0,0,1,.24-.25A.24.24,0,0,1,13.72,75.2Z"/><path class="cls-1" d="M29.2,61.27a3.43,3.43,0,0,1,4.11,2.84.19.19,0,0,1-.15.21.2.2,0,0,1-.17,0l-.12-.13a4.51,4.51,0,0,0-.45-.5,2.35,2.35,0,0,0-.38-.39,7,7,0,0,0-.76-.58,7.27,7.27,0,0,0-.81-.47A2.5,2.5,0,0,0,30,62a6.09,6.09,0,0,0-.61-.22l-.2-.08a.22.22,0,0,1-.13-.28A.22.22,0,0,1,29.2,61.27Z"/><path class="cls-1" d="M29.23,61.93c-.46.49-.84,1-1.32,1.47s-.92.92-1.38,1.41a.16.16,0,0,1-.23,0,.2.2,0,0,1-.06-.14l0-.21a4,4,0,0,1,.14-.57l.21-.46a3.41,3.41,0,0,1,.51-.75,3.13,3.13,0,0,1,.7-.59l.42-.25a5.58,5.58,0,0,1,.54-.2l.25,0a.19.19,0,0,1,.24.15A.17.17,0,0,1,29.23,61.93Z"/><path class="cls-1" d="M26.34,65a1.53,1.53,0,0,0,0,1.15A4.63,4.63,0,0,0,27,67.29a2.45,2.45,0,0,0,1,.77A1.17,1.17,0,0,0,29,68a.2.2,0,0,1,.27,0,.2.2,0,0,1,0,.22l-.08.13a1.33,1.33,0,0,1-.74.51,2.24,2.24,0,0,1-.93,0,2.57,2.57,0,0,1-1.43-1,3.35,3.35,0,0,1-.65-1.4,3.52,3.52,0,0,1,0-.86,1.56,1.56,0,0,1,.39-.78l.13-.13a.24.24,0,0,1,.33,0A.23.23,0,0,1,26.34,65Z"/><path class="cls-1" d="M29.25,68c.75-.61,1.4-1.32,2.1-2s1.32-1.39,1.91-2.16a.18.18,0,0,1,.26,0,.18.18,0,0,1,.08.18l0,.15a5.78,5.78,0,0,1-.24.77l-.35.66a6.42,6.42,0,0,1-2,2.09l-.64.39a5.42,5.42,0,0,1-.74.29l-.18,0a.22.22,0,0,1-.27-.17A.22.22,0,0,1,29.25,68Z"/><path class="cls-1" d="M35.56,73.29c.75-1.68,1.37-3.41,2.06-5.12s1.26-3.45,1.8-5.21a.21.21,0,0,1,.26-.14.21.21,0,0,1,.15.2v.08c0,.49-.1.94-.15,1.42l-.28,1.36a24.65,24.65,0,0,1-.8,2.66,21.88,21.88,0,0,1-1.1,2.54l-.66,1.23c-.26.39-.48.79-.79,1.17l-.06.07a.24.24,0,0,1-.35,0A.27.27,0,0,1,35.56,73.29Z"/><path class="cls-1" d="M39.52,63.31a5.29,5.29,0,0,1,2.2-1.12,3.71,3.71,0,0,1,2.41.27,3.09,3.09,0,0,1,1.67,1.75,3,3,0,0,1-.19,2.45.2.2,0,0,1-.28.07.19.19,0,0,1-.1-.2v-.11a2.47,2.47,0,0,0,0-1,2.25,2.25,0,0,0-.3-.87,2.73,2.73,0,0,0-1.25-1.08A3.9,3.9,0,0,0,41,63.31a5.89,5.89,0,0,0-1.06.38l-.12,0a.25.25,0,0,1-.32-.14A.26.26,0,0,1,39.52,63.31Z"/><path class="cls-1" d="M36.15,74a3.7,3.7,0,0,0,5.05,1.78.19.19,0,0,1,.26.28l-.08.11a2.93,2.93,0,0,1-.7.61,4.35,4.35,0,0,1-.88.3A3.42,3.42,0,0,1,38,77a3.48,3.48,0,0,1-1.55-1,4.74,4.74,0,0,1-.51-.78,2.86,2.86,0,0,1-.2-.91v-.16a.24.24,0,0,1,.25-.23A.22.22,0,0,1,36.15,74Z"/><path class="cls-1" d="M41.27,75.06c.8-1.61,1.64-3.18,2.46-4.75a17.21,17.21,0,0,0,1.65-5,.21.21,0,0,1,.23-.19.22.22,0,0,1,.18.18v.08a7.49,7.49,0,0,1,0,1.42c-.06.46-.14.93-.24,1.38a12.73,12.73,0,0,1-.92,2.6,19,19,0,0,1-1.34,2.33l-.75,1.11c-.29.35-.53.72-.84,1.06l-.08.08a.25.25,0,0,1-.35,0A.26.26,0,0,1,41.27,75.06Z"/><path class="cls-1" d="M29.92,80.28a6.07,6.07,0,0,1,3.29-2.51,1.86,1.86,0,0,1,2,.43,3.72,3.72,0,0,1,.86,1.94.2.2,0,0,1-.16.23.2.2,0,0,1-.2-.09l-.07-.1a5.18,5.18,0,0,0-.54-.81,1.91,1.91,0,0,0-.55-.55,1.18,1.18,0,0,0-1.06,0,9.2,9.2,0,0,0-1.54.68,6.25,6.25,0,0,0-.77.49c-.29.16-.52.38-.82.58l-.11.08a.24.24,0,0,1-.34-.33Z"/><path class="cls-1" d="M30.56,80.78a29.69,29.69,0,0,0,.08,8,.21.21,0,0,1-.17.24.23.23,0,0,1-.21-.1l-.05-.1a7.67,7.67,0,0,1-.43-1l-.26-1a10.81,10.81,0,0,1-.24-2,10,10,0,0,1,.16-2l.21-1a8.25,8.25,0,0,1,.39-1l.06-.12a.24.24,0,0,1,.33-.1A.26.26,0,0,1,30.56,80.78Z"/><path class="cls-1" d="M35.84,80.84c.15,1.18.37,2.35.45,3.54s.19,2.36.28,3.56a.19.19,0,0,1-.18.21.21.21,0,0,1-.19-.1l-.06-.12c-.16-.29-.23-.58-.36-.87l-.23-.86a12.8,12.8,0,0,1-.31-1.71,12.31,12.31,0,0,1-.08-1.72l0-.89c.06-.31.06-.61.15-.93l0-.15a.24.24,0,0,1,.29-.16A.22.22,0,0,1,35.84,80.84Z"/><path class="cls-1" d="M30.69,88.82a2.37,2.37,0,0,0,1.39.74,3.69,3.69,0,0,0,1.65-.08,6.37,6.37,0,0,0,2.75-1.92.2.2,0,0,1,.28,0,.21.21,0,0,1,.06.21l0,.13a4.24,4.24,0,0,1-.43.85,8.14,8.14,0,0,1-.61.73,4.14,4.14,0,0,1-1.7,1,3.58,3.58,0,0,1-2.1,0A4.2,4.2,0,0,1,31,90a2.23,2.23,0,0,1-.65-.82l-.06-.14a.25.25,0,0,1,.14-.31A.25.25,0,0,1,30.69,88.82Z"/><path class="cls-1" d="M42.64,86.72c.88-1.56,1.58-3.21,2.3-4.85s1.3-3.33,1.78-5.06a.2.2,0,0,1,.25-.14.23.23,0,0,1,.16.2V77c0,.48-.08.93-.12,1.39l-.27,1.34a18.11,18.11,0,0,1-.82,2.59,19,19,0,0,1-1.2,2.44L44,85.86a12.6,12.6,0,0,1-.88,1.08L43,87a.26.26,0,0,1-.36,0A.26.26,0,0,1,42.64,86.72Z"/><path class="cls-1" d="M46.81,77.29a1.84,1.84,0,0,1,1.62-1,3.41,3.41,0,0,1,1.75.51A3.34,3.34,0,0,1,51.53,78a2.37,2.37,0,0,1,.26,1.85.2.2,0,0,1-.24.13.21.21,0,0,1-.14-.15l0-.14a1.86,1.86,0,0,0-.26-.72,1.35,1.35,0,0,0-.38-.52,4.33,4.33,0,0,0-1.06-.73,4.92,4.92,0,0,0-1.19-.49,1,1,0,0,0-.56,0,1.12,1.12,0,0,0-.63.25l-.16.11a.22.22,0,0,1-.31-.06A.2.2,0,0,1,46.81,77.29Z"/><path class="cls-1" d="M51.45,80.3c-.81,1.42-1.45,2.92-2.12,4.41a46.92,46.92,0,0,0-1.58,4.64.21.21,0,0,1-.25.15.24.24,0,0,1-.16-.19v-.1a10.87,10.87,0,0,1,.06-1.28l.23-1.23a14.89,14.89,0,0,1,.73-2.38,14.38,14.38,0,0,1,1.11-2.22l.68-1a12.66,12.66,0,0,1,.83-1l.09-.08a.25.25,0,0,1,.35,0A.26.26,0,0,1,51.45,80.3Z"/><path class="cls-1" d="M43.49,87.57a.89.89,0,0,0,.27,1.16,3.61,3.61,0,0,0,1.35.69,2.33,2.33,0,0,0,1.48-.11,1.42,1.42,0,0,0,.87-1.07.19.19,0,0,1,.22-.17.19.19,0,0,1,.17.15l0,.12a1.57,1.57,0,0,1-.17,1,2.65,2.65,0,0,1-.76.77,2.71,2.71,0,0,1-2.08.31,3.37,3.37,0,0,1-1.72-1,2,2,0,0,1-.52-1.06A1.31,1.31,0,0,1,43,87.3l.12-.08a.24.24,0,0,1,.33.35Z"/><path class="cls-1" d="M51.39,69.41a2.94,2.94,0,0,1-1-2.08A3.7,3.7,0,0,1,51,65.17a6.24,6.24,0,0,1,1.47-1.69,4.38,4.38,0,0,1,2.07-.95.2.2,0,0,1,.22.18.19.19,0,0,1-.1.2l-.09.05a4.22,4.22,0,0,0-.85.58,3.91,3.91,0,0,0-.69.66,11,11,0,0,0-1.13,1.51,3.88,3.88,0,0,0-.58,1.54,2.44,2.44,0,0,0,0,.85,2.4,2.4,0,0,0,.32.89l.07.12a.25.25,0,0,1-.1.33A.26.26,0,0,1,51.39,69.41Z"/><path class="cls-1" d="M54.73,62.69a13.78,13.78,0,0,1,3.06,1.92,9.27,9.27,0,0,0,1.54.84,3.34,3.34,0,0,0,1.67.28.19.19,0,0,1,.22.17.19.19,0,0,1-.1.2l-.11.06a2.68,2.68,0,0,1-1,.25,5.08,5.08,0,0,1-1-.12,5.73,5.73,0,0,1-1.77-.81,10.8,10.8,0,0,1-1.35-1.11c-.2-.2-.41-.39-.62-.57s-.42-.38-.64-.61l-.11-.11a.24.24,0,0,1,0-.34A.24.24,0,0,1,54.73,62.69Z"/><path class="cls-1" d="M52.26,69.39a10.52,10.52,0,0,1,3.26,1.69,7.83,7.83,0,0,0,3.21,1.39.19.19,0,0,1,.19.21.18.18,0,0,1-.14.18l-.12,0a3.16,3.16,0,0,1-1,.09,6.71,6.71,0,0,1-1-.21A6.85,6.85,0,0,1,55,72c-.5-.34-1-.65-1.4-1a8.16,8.16,0,0,0-.66-.5c-.22-.2-.46-.33-.71-.54l-.13-.11a.24.24,0,0,1,0-.33A.25.25,0,0,1,52.26,69.39Z"/><path class="cls-1" d="M58.75,72.44a3.1,3.1,0,0,0,1.55-.88,5.24,5.24,0,0,0,1-1.53,5.19,5.19,0,0,0,.38-1.81A1.55,1.55,0,0,0,61,66.75a.21.21,0,0,1-.1-.27.22.22,0,0,1,.22-.12l.11,0a1.59,1.59,0,0,1,1,.7,3.36,3.36,0,0,1,.4,1.15,4.25,4.25,0,0,1-.33,2.2A4.33,4.33,0,0,1,61,72.21a4,4,0,0,1-1,.57,2.79,2.79,0,0,1-1.1.15h-.13a.25.25,0,0,1-.22-.27A.23.23,0,0,1,58.75,72.44Z"/><path class="cls-1" d="M67.55,67.27a1,1,0,0,1-.36-1.1,2.66,2.66,0,0,1,.39-.93A4,4,0,0,1,69,63.88a4.51,4.51,0,0,1,3.79-.53.21.21,0,0,1,.13.25.19.19,0,0,1-.16.14l-.13,0a6,6,0,0,0-.91.13,3.52,3.52,0,0,0-.79.2,7.6,7.6,0,0,0-1.37.68,6,6,0,0,0-1.14.94c-.09.09-.16.2-.25.3a1.24,1.24,0,0,0-.17.27.63.63,0,0,0-.16.54l.05.24a.21.21,0,0,1-.16.24A.22.22,0,0,1,67.55,67.27Z"/><path class="cls-1" d="M72.88,63.27c.82.87,1.73,1.64,2.6,2.46s1.8,1.56,2.77,2.26a.2.2,0,0,1,0,.28.24.24,0,0,1-.21.08l-.12,0c-.33-.08-.61-.22-.91-.32l-.81-.44a9.42,9.42,0,0,1-1.46-1,9.55,9.55,0,0,1-1.25-1.29L73,64.5a8.32,8.32,0,0,1-.46-.84l0-.14a.24.24,0,0,1,.14-.31A.23.23,0,0,1,72.88,63.27Z"/><path class="cls-1" d="M68.16,67.37c.87.91,1.83,1.71,2.75,2.57s1.9,1.62,2.92,2.36a.19.19,0,0,1,0,.28.2.2,0,0,1-.2.08l-.12,0a8.68,8.68,0,0,1-.94-.34l-.85-.46a10.5,10.5,0,0,1-1.54-1.1,11.14,11.14,0,0,1-1.32-1.34l-.59-.76a8,8,0,0,1-.49-.86l-.06-.14a.24.24,0,0,1,.13-.31A.24.24,0,0,1,68.16,67.37Z"/><path class="cls-1" d="M73.3,71.73a3.75,3.75,0,0,0,3.38-.92,4,4,0,0,0,1-1.56,2.85,2.85,0,0,0,.17-.88c0-.28-.17-.55-.32-.52a.21.21,0,0,1-.24-.16.21.21,0,0,1,.15-.24l.13,0a.72.72,0,0,1,.71.31,1.82,1.82,0,0,1,.3.63,4.18,4.18,0,0,1,0,1.19,3.89,3.89,0,0,1-1.08,2,3.84,3.84,0,0,1-2,1,4.2,4.2,0,0,1-1.12,0,2.83,2.83,0,0,1-1-.37l-.12-.08a.25.25,0,0,1-.07-.34A.26.26,0,0,1,73.3,71.73Z"/><path class="cls-1" d="M67,81.8a2.09,2.09,0,0,1,.8-1.79,4.72,4.72,0,0,1,1.6-.94A5.35,5.35,0,0,1,73,79a.21.21,0,0,1,.13.25.2.2,0,0,1-.17.14h-.13c-.33,0-.61,0-.9.09a4.07,4.07,0,0,0-.79.12,10.09,10.09,0,0,0-1.44.43,8.45,8.45,0,0,0-1.32.64,2.35,2.35,0,0,0-.55.42,1.17,1.17,0,0,0-.4.56l-.07.18a.24.24,0,0,1-.3.13A.22.22,0,0,1,67,81.8Z"/><path class="cls-1" d="M67.19,81.88a30.26,30.26,0,0,0,1.77,4,28.72,28.72,0,0,0,2.4,3.65.2.2,0,0,1,0,.29.2.2,0,0,1-.23,0L71,89.77a8.24,8.24,0,0,1-.91-.72l-.78-.83A11.2,11.2,0,0,1,68,86.38a10.77,10.77,0,0,1-.89-2.06l-.3-1.09a8.6,8.6,0,0,1-.14-1.15V82a.25.25,0,0,1,.25-.25A.24.24,0,0,1,67.19,81.88Z"/><path class="cls-1" d="M73.3,79.24c.64,1.15,1.35,2.24,2,3.39s1.27,2.28,1.94,3.4a.19.19,0,0,1-.07.27.18.18,0,0,1-.22,0l-.1-.07c-.28-.22-.49-.48-.75-.71l-.62-.76a14,14,0,0,1-1.09-1.59,13.14,13.14,0,0,1-.86-1.72l-.36-.91c-.08-.34-.21-.64-.26-1l0-.14a.24.24,0,0,1,.21-.27A.23.23,0,0,1,73.3,79.24Z"/><path class="cls-1" d="M70.81,88.89a2.42,2.42,0,0,0,1.56.76,3.69,3.69,0,0,0,1.8-.22,5.45,5.45,0,0,0,2.55-2.62.2.2,0,0,1,.27-.1.21.21,0,0,1,.11.2V87a4.49,4.49,0,0,1-.26,1,6.17,6.17,0,0,1-.53.93,4.14,4.14,0,0,1-1.72,1.41,3.68,3.68,0,0,1-2.31.21,3.83,3.83,0,0,1-1.08-.46,2.38,2.38,0,0,1-.74-.87l-.06-.12a.25.25,0,0,1,.13-.32A.23.23,0,0,1,70.81,88.89Z"/><path class="cls-1" d="M15.85,50.87a10.66,10.66,0,0,1-.78,4.71,33.9,33.9,0,0,1-2.43,4.07,31.46,31.46,0,0,1-2.75,3.86c-1,1.17-2.22,2.32-2.49,3.82a.21.21,0,0,1-.42,0v0a5.13,5.13,0,0,1,.81-2.4c.45-.7,1-1.33,1.41-1.94a42.37,42.37,0,0,0,2.56-3.82,45.5,45.5,0,0,0,2.43-3.88,8.45,8.45,0,0,0,.75-2,14.8,14.8,0,0,0,.39-2.26v-.06a.26.26,0,0,1,.52,0Z"/><path class="cls-1" d="M18.17,58.16a18.5,18.5,0,0,1-.32,2.68,13.81,13.81,0,0,0-.46,2.59,22.07,22.07,0,0,0,.44,2.6,3.32,3.32,0,0,1-.59,2.67.2.2,0,0,1-.29,0,.2.2,0,0,1-.06-.23l0-.09a2.26,2.26,0,0,0,.18-1.13,4,4,0,0,0-.18-1.12,10.4,10.4,0,0,1-.59-2.71,8.82,8.82,0,0,1,.57-2.78,11.52,11.52,0,0,0,.36-1.22c.15-.41.23-.84.38-1.27l0-.11a.25.25,0,0,1,.32-.15A.26.26,0,0,1,18.17,58.16Z"/><path class="cls-1" d="M62.93,56.6a72.87,72.87,0,0,1,1.72,11.92,11.68,11.68,0,0,0,1.5,5.7,21.18,21.18,0,0,0,3.95,4.46.23.23,0,0,1,0,.31.22.22,0,0,1-.28,0l0,0a26.88,26.88,0,0,1-2.37-1.92,15.82,15.82,0,0,1-2-2.39,9,9,0,0,1-1.31-3,20.38,20.38,0,0,1-.46-3.1c-.08-2-.31-3.95-.5-5.93-.09-1-.21-2-.34-3l-.33-3v0a.27.27,0,0,1,.23-.29A.26.26,0,0,1,62.93,56.6Z"/><path class="cls-1" d="M66.48,56.09a3.8,3.8,0,0,0-.27,2.14,5.94,5.94,0,0,0,.71,2.1,12,12,0,0,0,1.37,1.81c.59.56.61,1.53,1,2a.21.21,0,0,1,0,.29.2.2,0,0,1-.25,0l-.07,0a4.14,4.14,0,0,1-.71-1.05,1.94,1.94,0,0,0-.59-.66A7.56,7.56,0,0,1,66,60.86a5.32,5.32,0,0,1-.74-2.48,5.16,5.16,0,0,1,.13-1.31A3.27,3.27,0,0,1,66,55.91l.07-.09a.25.25,0,0,1,.35,0A.25.25,0,0,1,66.48,56.09Z"/><path class="cls-1" d="M44.05,49.29a6.31,6.31,0,0,0-.45,4.55,20.53,20.53,0,0,0,1.8,4.42,8.06,8.06,0,0,0,3,3.61,20.88,20.88,0,0,1,4,2.8.21.21,0,0,1,0,.3.22.22,0,0,1-.27,0l0,0c-.68-.44-1.33-.88-2-1.24s-1.35-.7-2.12-1.1a6.09,6.09,0,0,1-2.05-1.74,15.54,15.54,0,0,1-1.37-2.16,19,19,0,0,1-1.79-4.68,8.78,8.78,0,0,1-.06-2.61,5.41,5.41,0,0,1,1-2.4l0,0A.27.27,0,0,1,44,49,.25.25,0,0,1,44.05,49.29Z"/><path class="cls-1" d="M43.69,49.53a28,28,0,0,1-1.21,4.41,14.11,14.11,0,0,1-2.42,3.89,14.32,14.32,0,0,1-3.45,3c-1.27.85-2.92,1.16-3.86,2.24a.21.21,0,0,1-.3,0,.22.22,0,0,1-.05-.27l0,0a5.19,5.19,0,0,1,1.85-1.59,14.32,14.32,0,0,0,1.87-1.14,15.36,15.36,0,0,0,3.12-2.9,14.78,14.78,0,0,0,2.33-3.56,14.11,14.11,0,0,0,.82-2c.26-.73.47-1.46.77-2.17l0,0a.25.25,0,0,1,.34-.13A.25.25,0,0,1,43.69,49.53Z"/><path class="cls-1" d="M43,49.83a23,23,0,0,0-.6,6.49,11,11,0,0,0,.81,3.14,9,9,0,0,1,.84,3.23.22.22,0,0,1-.42.06l0-.08a6.72,6.72,0,0,0-.54-1.46c-.21-.47-.45-.93-.71-1.43a9.32,9.32,0,0,1-1-3.35A12.37,12.37,0,0,1,41.55,53c.12-.55.24-1.1.38-1.64s.34-1.07.58-1.58l0-.08a.25.25,0,0,1,.33-.13A.26.26,0,0,1,43,49.83Z"/><path class="cls-1" d="M43,49a23.15,23.15,0,0,1-.42,3.9,28,28,0,0,1-1.1,3.76,43.69,43.69,0,0,1-3.48,7q-1,1.68-2,3.33c-.67,1.11-1.43,2.18-2,3.33A9.31,9.31,0,0,0,34,77.68a.22.22,0,0,1-.39.18v0a9.16,9.16,0,0,1-.36-8,29.38,29.38,0,0,1,2-3.47c.67-1.1,1.32-2.21,2-3.32s1.29-2.2,1.87-3.33,1.08-2.29,1.59-3.45A27,27,0,0,0,42.51,49v0a.27.27,0,0,1,.29-.23A.27.27,0,0,1,43,49Z"/><path class="cls-1" d="M43.31,50.46a6.51,6.51,0,0,0-.15,3.45,12.49,12.49,0,0,0,1.33,3.29c.59,1,1.33,2,2,3a8.62,8.62,0,0,1,1.33,3.38c.23,1.19.34,2.39.47,3.59a12.7,12.7,0,0,1-.09,3.64,2.81,2.81,0,0,0-.06,1.69,4.75,4.75,0,0,0,1.11,1.34,2.72,2.72,0,0,1,.51,3.51.22.22,0,0,1-.3.06.24.24,0,0,1-.08-.28l0,0a2.36,2.36,0,0,0,.17-1.54,2.21,2.21,0,0,0-.85-1.22,4.87,4.87,0,0,1-1.34-1.54,3.69,3.69,0,0,1-.07-2.17,14.62,14.62,0,0,0,0-3.37c-.14-1.16-.28-2.4-.51-3.48a7.43,7.43,0,0,0-1.16-3,35.11,35.11,0,0,1-2-3.09,13.07,13.07,0,0,1-1.28-3.58,6.71,6.71,0,0,1,.43-3.79v0a.26.26,0,0,1,.35-.12A.24.24,0,0,1,43.31,50.46Z"/></g></g></svg>