<?xml version="1.0" encoding="utf-8"?>
<!-- Generator: Adobe Illustrator 26.0.1, SVG Export Plug-In . SVG Version: 6.00 Build 0)  -->
<svg version="1.1" id="Layer_1" xmlns="http://www.w3.org/2000/svg" xmlns:xlink="http://www.w3.org/1999/xlink" x="0px" y="0px"
	 viewBox="0 0 168.9 19.1" style="enable-background:new 0 0 168.9 19.1;" xml:space="preserve">
<style type="text/css">
	.st0{clip-path:url(#SVGID_00000145750891278187848450000014032477986807252877_);}
	.st1{fill:none;stroke:#9B8870;stroke-miterlimit:10;}
	.st2{fill:#9B8870;}
</style>
<g>
	<defs>
		<rect id="SVGID_1_" y="-16.4" width="168.9" height="71"/>
	</defs>
	<clipPath id="SVGID_00000072276584995820761350000008544518744565443771_">
		<use xlink:href="#SVGID_1_"  style="overflow:visible;"/>
	</clipPath>
	<g style="clip-path:url(#SVGID_00000072276584995820761350000008544518744565443771_);">
		<line class="st1" x1="275.4" y1="9.8" x2="-84.5" y2="9.8"/>
		<path class="st2" d="M243.7,9.6c0-5.3,4.2-9.6,9.5-9.6c5.3,0,9.6,4.2,9.6,9.5s-4.2,9.6-9.5,9.6c0,0,0,0,0,0
			C247.9,19.1,243.7,14.8,243.7,9.6z"/>
		<path class="st2" d="M74.9,9.6c0-5.3,4.3-9.5,9.5-9.5c5.3,0,9.5,4.3,9.5,9.5s-4.3,9.5-9.5,9.5l0,0C79.1,19.1,74.9,14.8,74.9,9.6z"
			/>
		<path class="st2" d="M-94,9.6c0-5.3,4.3-9.5,9.5-9.5c5.3,0,9.5,4.3,9.5,9.5s-4.3,9.5-9.5,9.5C-89.7,19.1-94,14.8-94,9.6
			C-94,9.6-94,9.6-94,9.6z"/>
	</g>
</g>
</svg>
