<?xml version="1.0" encoding="utf-8"?>
<!-- Generator: Adobe Illustrator 26.0.1, SVG Export Plug-In . SVG Version: 6.00 Build 0)  -->
<svg version="1.1" id="Layer_1" xmlns="http://www.w3.org/2000/svg" xmlns:xlink="http://www.w3.org/1999/xlink" x="0px" y="0px"
	 viewBox="0 0 626 553" style="enable-background:new 0 0 626 553;" xml:space="preserve">
<style type="text/css">
	.st0{fill:#C1A78E;}
</style>
<g>
	<g>
		<path class="st0" d="M125.9,451.4c-1.1-4.7-3.9-8.7-4.7-13.5c-2.2-13.2,1.9-24.3,11.1-33.6c19.9-20.1,40-40.1,60-60.1
			c81.9-81.9,164-163.8,245.7-245.9c15.2-15.3,33.8-17.7,48.3-8.9c0.4,0.2,0.9,0.1,1.4,0.1c3.5,3.5,7.1,7.1,10.6,10.6
			c12.7,16.5,6,36.8-5,48.2c-1,1.1-2.1,2.1-3.2,3.2C389.5,252.2,288.7,353,188,453.8c-6,6-12.4,11.2-20.7,13.4
			c-11.4,3.1-22.1,1.9-31.4-5.9C132.5,458,129.2,454.7,125.9,451.4z"/>
		<path class="st0" d="M488.5,462.9c-5.8,1.6-11.2,4.7-17.5,5c-9.8,0.4-18.4-2.1-25.8-8.6c-1.9-1.6-3.6-3.5-5.4-5.2
			c-101.4-101.3-202.7-202.7-304-304c-15.7-15.7-17.9-26.7-9.4-47.1c0.2-0.6,0.2-1.3,0.2-1.9c3.5-3.5,7.1-7.1,10.6-10.6
			c5.3-1.6,10.2-4.8,15.9-5.3c12.4-1.1,22.7,2.8,31.6,11.7c71.7,71.9,143.6,143.6,215.4,215.4c30.5,30.5,61,61,91.5,91.5
			c14.8,14.8,16.9,29.8,6.9,48.3c-0.1,0.2,0,0.6,0,1C495.1,456.4,491.8,459.6,488.5,462.9z"/>
	</g>
</g>
</svg>
