<svg xmlns="http://www.w3.org/2000/svg" viewBox="0 0 61.46 93.13"><defs><style>.cls-1{fill:#9b8870;}</style></defs><title>foto</title><g id="Слой_2" data-name="Слой 2"><g id="Слой_1-2" data-name="Слой 1"><path class="cls-1" d="M61.13,92.7c-15.33.14-45.72.37-61.06.43V92.7L0,52.67v-.5H.5c15.11,0,45.52.09,60.63.17h.33v.33l-.33,40Zm0,0-.33-40,.33.33-30.31.12L.5,53.17l.5-.5-.07,40L.5,92.27c15.11.06,45.52.29,60.63.43Z"/><path class="cls-1" d="M45.94,74.5C46,86.85,30.9,93.23,22,84.57a14.19,14.19,0,0,1,0-20.15c8.86-8.66,24-2.27,23.9,10.08Zm0,0C45.88,62.35,31.1,56.36,22.64,65a13.62,13.62,0,0,0,0,18.94c8.46,8.67,23.24,2.67,23.3-9.47Z"/><path class="cls-1" d="M56.9,60.67c-3.35.22-6.88.42-10.3.47-.05-1.59,0-3.18-.06-4.76v-.5H47c3.38,0,6.76.09,10.14.23-.06,1.57-.19,3.15-.28,4.56Zm0,0c-.09-1.52-.22-2.93-.28-4.29l.28.28c-3.29.15-6.57.22-9.86.22l.5-.5c0,1.43,0,2.86,0,4.29L47,60.22c3.3.06,6.49.26,9.86.45Z"/><path class="cls-1" d="M49.69,80a1.58,1.58,0,0,1-3.15,0,1.58,1.58,0,1,1,3.15,0Zm0,0a1.08,1.08,0,1,0-2.15,0,1.08,1.08,0,1,0,2.15,0Z"/><path class="cls-1" d="M61.13,63.73a101,101,0,0,1-20.35,0,100.29,100.29,0,0,1,20.35,0Z"/><path class="cls-1" d="M42.61,83.48a83.71,83.71,0,0,1,18.52,0,83.11,83.11,0,0,1-18.52,0Z"/><path class="cls-1" d="M.5,83.48a108.79,108.79,0,0,1,21.12,0,108,108,0,0,1-21.12,0Z"/><path class="cls-1" d="M23.46,63.73a128.52,128.52,0,0,1-23,0,127.59,127.59,0,0,1,23,0Z"/><path class="cls-1" d="M42.88,74.5c.1,9.62-11.77,14.66-18.68,7.91a11.13,11.13,0,0,1,0-15.83c6.9-6.75,18.78-1.7,18.68,7.92Zm0,0c0-9.41-11.58-14.07-18.07-7.31a10.54,10.54,0,0,0,0,14.62c6.5,6.76,18.06,2.09,18.08-7.31Z"/><path class="cls-1" d="M15.28,52.67c-2.39.2-5.14.42-7.82.46C7.4,51.55,7.4,50,7.39,48.37h.5c2.57,0,5.14.06,7.71.21-.06,1.4-.22,2.84-.32,4.08Zm0,0c-.09-1.37-.24-2.6-.3-3.79l.3.3c-2.46.14-4.93.19-7.39.19l.5-.49c0,1.26,0,2.53-.05,3.79l-.45-.45c2.35.06,4.74.27,7.39.45Z"/><path class="cls-1" d="M30.82,65.8a19.79,19.79,0,0,0-6.07,6.89,7.56,7.56,0,0,1,6.07-6.89Z"/><path class="cls-1" d="M34.68,52.79a34.83,34.83,0,0,1,0-11.92,34.58,34.58,0,0,1,0,11.92Z"/><path class="cls-1" d="M29,41.1a33.27,33.27,0,0,1,0,11.69A33.51,33.51,0,0,1,29,41.1Z"/><path class="cls-1" d="M52,21.09c0,17.77-21.54,26.82-34.26,14.37a20.28,20.28,0,0,1,0-28.74C30.47-5.74,52,3.32,52,21.09Zm0,0C51.9,3.53,30.67-5.13,18.35,7.33c-7.46,7.26-7.47,20.26,0,27.53C30.67,47.32,51.9,38.65,52,21.09Z"/><path class="cls-1" d="M34.68,21.09a2.82,2.82,0,0,1-5.63,0,2.82,2.82,0,0,1,5.63,0Zm0,0a2.32,2.32,0,0,0-4.63,0,2.32,2.32,0,0,0,4.63,0Z"/><path class="cls-1" d="M32.12,1.2a73.25,73.25,0,0,1,0,17.32,72.72,72.72,0,0,1,0-17.32Z"/><path class="cls-1" d="M22.17,3.86a73,73,0,0,1,8.66,15,73.29,73.29,0,0,1-8.66-15Z"/><path class="cls-1" d="M14.89,11.14a73,73,0,0,1,15,8.67,73,73,0,0,1-15-8.67Z"/><path class="cls-1" d="M12.22,21.09a73.33,73.33,0,0,1,17.33,0,73.33,73.33,0,0,1-17.33,0Z"/><path class="cls-1" d="M14.89,31a73,73,0,0,1,15-8.67,73,73,0,0,1-15,8.67Z"/><path class="cls-1" d="M22.17,38.32a73.29,73.29,0,0,1,8.66-15,73,73,0,0,1-8.66,15Z"/><path class="cls-1" d="M32.12,41a72.72,72.72,0,0,1,0-17.32,73.25,73.25,0,0,1,0,17.32Z"/><path class="cls-1" d="M42.06,38.32a73,73,0,0,1-8.66-15,73.29,73.29,0,0,1,8.66,15Z"/><path class="cls-1" d="M49.34,31a73,73,0,0,1-15-8.67,73,73,0,0,1,15,8.67Z"/><path class="cls-1" d="M52,21.09a73.33,73.33,0,0,1-17.33,0,73.33,73.33,0,0,1,17.33,0Z"/><path class="cls-1" d="M49.34,11.14a73,73,0,0,1-15,8.67,73,73,0,0,1,15-8.67Z"/><path class="cls-1" d="M42.06,3.86a73.29,73.29,0,0,1-8.66,15,73,73,0,0,1,8.66-15Z"/><path class="cls-1" d="M11.27,21.09c0-18.62,22.56-28.09,35.89-15a21.23,21.23,0,0,1,0,30.08c-13.33,13.06-35.91,3.57-35.89-15Zm0,0c.11,18.41,22.36,27.5,35.29,14.44,7.83-7.62,7.83-21.26,0-28.88-12.92-13.06-35.18-4-35.29,14.44Z"/></g></g></svg>