<svg xmlns="http://www.w3.org/2000/svg" viewBox="0 0 68.96 94.01"><defs><style>.cls-1{fill:#9b8870;}</style></defs><title>glasses</title><g id="Слой_2" data-name="Слой 2"><g id="Слой_1-2" data-name="Слой 1"><path class="cls-1" d="M46.88,10.14c4.86-.08,14.62-.25,19.48-.29h.33l0,.33C65.24,23.65,64,37.32,60.16,50.36c-8,22-13-36.06-13.28-40.22,1.84,13.38,3.23,27,7.09,39.92,2,5.63,3.31,5.73,5.26,0,3.82-13,5.13-26.56,6.83-39.93l.3.32c-4.86,0-14.62-.21-19.48-.3Z"/><path class="cls-1" d="M57.64,54.85c.37,11.41.44,22.89.48,34.31v.57a1.53,1.53,0,1,1-3.05,0v-.57c0-11.19.12-23.12.49-34.31.38,11.39.45,23.5.49,34.88a.55.55,0,0,0,1,.33,2.92,2.92,0,0,0,.07-.9c0-11.42.11-22.9.49-34.31Z"/><path class="cls-1" d="M57.63,88.21a29.45,29.45,0,0,1,8.78.79,3.82,3.82,0,0,1,2.39,1.45c.44,1.46-1.5,2.08-2.56,2.43a38.76,38.76,0,0,1-14.71.77c-2-.34-4-.53-5.77-1.73a1.61,1.61,0,0,1-.55-.77c-.28-1,.9-1.59,1.6-1.86a25.2,25.2,0,0,1,8.76-1.07,30.15,30.15,0,0,0-8.51,1.65c-2.82,1.19.33,2,1.75,2.4a38.21,38.21,0,0,0,8.61.74c3.31-.07,6.79-.15,9.87-1.43.39-.19.79-.48.82-.68s-.24-.52-.61-.74c-3-1.48-6.54-1.65-9.87-2Z"/><path class="cls-1" d="M49.06,28a55.88,55.88,0,0,1,15.12,0,55.48,55.48,0,0,1-15.12,0Z"/><path class="cls-1" d="M55.18,32.8a1.64,1.64,0,0,1-3.28,0,1.64,1.64,0,0,1,3.28,0Zm0,0a1.14,1.14,0,1,0-2.28,0,1.14,1.14,0,1,0,2.28,0Z"/><path class="cls-1" d="M57.4,37.75a.64.64,0,1,1-1.28,0,.64.64,0,1,1,1.28,0Zm0,0c0-.23-.32-.31-.39-.14s.12.22.11.14-.19,0-.11.14.4.1.39-.14Z"/><path class="cls-1" d="M61.28,31.68a.53.53,0,1,1-1.05,0,.53.53,0,1,1,1.05,0Zm0,0c0-.17-.27-.19-.28,0s.24.17.23,0-.24-.15-.23,0,.28.14.28,0Z"/><path class="cls-1" d="M58.25,42.62a.87.87,0,1,1-1.74,0,.87.87,0,1,1,1.74,0Zm0,0c0-.64-.88-.5-.74,0-.15.5.7.64.74,0Z"/><path class="cls-1" d="M62.33,36.7a.92.92,0,1,1-1.83,0,.92.92,0,1,1,1.83,0Zm0,0c0-.7-.94-.56-.83,0-.11.56.78.69.83,0Z"/><path class="cls-1" d="M29,0c4.6,1.56,13.85,4.7,18.43,6.3l.31.11-.14.3C41.68,18.92,35.91,31.37,27.86,42.34,12.92,60.3,27.83,4,29,0c-2.79,13.21-6.08,26.46-6.82,40-.06,6,1.17,6.5,5,1.76C35.08,30.82,40.91,18.47,47,6.46l.17.41C42.64,5.19,33.51,1.73,29,0Z"/><path class="cls-1" d="M24,45.71c-3.56,11-7.45,22.05-11.33,33a1.55,1.55,0,0,1-2,1l-.33-.47.33.47a1.52,1.52,0,0,1-1-1.26A2.82,2.82,0,0,1,10,77.13C13.79,66.62,17.9,55.41,22,45c-3.44,10.65-7.4,21.91-11.14,32.45-.05.17-.3.71-.25.87a.55.55,0,0,0,.35.44l.34.47L11,78.77a.56.56,0,0,0,.73-.4c4-10.91,8-21.88,12.25-32.66Z"/><path class="cls-1" d="M12.69,77.1a29.3,29.3,0,0,1,8,3.72A3.76,3.76,0,0,1,22.44,83c-.07,1.52-2.12,1.45-3.22,1.42A38.5,38.5,0,0,1,5.11,80.15c-1.78-1-3.6-1.85-4.84-3.57A1.63,1.63,0,0,1,0,75.67c.08-1,1.39-1.19,2.14-1.21a25.33,25.33,0,0,1,8.61,2,30.68,30.68,0,0,0-8.57-1.32c-.69,0-1.89.23-1.26,1.08,2.57,2.73,6.48,4.07,10,5.38,3.14,1,6.44,2.15,9.77,2,.43,0,.9-.18,1-.37s-.05-.57-.33-.9c-2.35-2.41-5.59-3.76-8.62-5.17Z"/><path class="cls-1" d="M24.3,20.94a54.65,54.65,0,0,1,14.91,1.72A55.14,55.14,0,0,1,24.3,20.94Z"/><path class="cls-1" d="M29.12,24.13A1.64,1.64,0,0,1,26,23a1.64,1.64,0,1,1,3.09,1.11Zm0,0A1.14,1.14,0,1,0,27,23.35a1.14,1.14,0,1,0,2.15.78Z"/><path class="cls-1" d="M29.54,29.54a.64.64,0,1,1-1.21-.44.64.64,0,1,1,1.21.44Zm0,0c.09-.22-.2-.41-.32-.27s0,.25.05.17-.17-.09-.15.1.35.22.42,0Z"/><path class="cls-1" d="M35.23,25.14a.52.52,0,1,1-1-.36.52.52,0,1,1,1,.36Zm0,0c.07-.16-.18-.28-.24-.12s.16.24.2.1S35,24.9,35,25.07s.22.23.26.07Z"/><path class="cls-1" d="M28.69,34.41a.87.87,0,1,1-1.64-.59.87.87,0,1,1,1.64.59Zm0,0c.17-.62-.66-.78-.7-.25-.31.42.44.83.7.25Z"/><path class="cls-1" d="M34.53,30.21a.91.91,0,1,1-1.72-.62.91.91,0,1,1,1.72.62Zm0,0c.19-.67-.69-.84-.78-.28-.3.48.5.92.78.28Z"/><path class="cls-1" d="M53.84,16.74a3.47,3.47,0,0,1,3.46,1.13,3.48,3.48,0,0,1-3.46-1.13Z"/><path class="cls-1" d="M56.13,15.57A3.46,3.46,0,0,1,55,19a3.49,3.49,0,0,1,1.13-3.46Z"/><path class="cls-1" d="M65.5,23.09A3.46,3.46,0,0,1,69,24.22a3.49,3.49,0,0,1-3.46-1.13Z"/><path class="cls-1" d="M67.8,21.92a3.5,3.5,0,0,1-1.13,3.47,3.48,3.48,0,0,1,1.13-3.47Z"/><path class="cls-1" d="M60.48,13.8a7.08,7.08,0,0,1,5,1.65,7,7,0,0,1-5-1.65Z"/><path class="cls-1" d="M63.82,12.11a7.12,7.12,0,0,1-1.65,5,7.06,7.06,0,0,1,1.65-5Z"/><path class="cls-1" d="M26.28,4.84A3.48,3.48,0,0,1,29.74,6a3.47,3.47,0,0,1-3.46-1.13Z"/><path class="cls-1" d="M28.58,3.68a3.49,3.49,0,0,1-1.14,3.46,3.47,3.47,0,0,1,1.14-3.46Z"/><path class="cls-1" d="M33.66,1.81A3.49,3.49,0,0,1,37.12,3a3.49,3.49,0,0,1-3.46-1.14Z"/><path class="cls-1" d="M36,.65a3.49,3.49,0,0,1-1.14,3.46A3.47,3.47,0,0,1,36,.65Z"/><path class="cls-1" d="M30.51,8.77a7.07,7.07,0,0,1,5,1.65,7.06,7.06,0,0,1-5-1.65Z"/><path class="cls-1" d="M33.85,7.08a7,7,0,0,1-1.65,5,7.12,7.12,0,0,1,1.65-5Z"/></g></g></svg>