<svg xmlns="http://www.w3.org/2000/svg" viewBox="0 0 123 79.62"><defs><style>.cls-1{fill:#9b8870;}</style></defs><title>music</title><g id="Слой_2" data-name="Слой 2"><g id="Слой_1-2" data-name="Слой 1"><path class="cls-1" d="M75.27,44.51c.08,7.94-9.76,12.18-15.49,6.59a9.23,9.23,0,0,1,0-13.19c5.73-5.59,15.57-1.35,15.49,6.6Zm0,0c.06-7.73-9.63-11.58-14.88-6a8.67,8.67,0,0,0,0,12c5.25,5.6,14.94,1.74,14.88-6Z"/><path class="cls-1" d="M105.72,43.67c.08,7.94-9.75,12.17-15.48,6.6a9.23,9.23,0,0,1,0-13.19c5.9-5.66,15.4-1.3,15.5,6.59Zm0,0c-.08-7.7-9.55-11.62-14.89-6a8.67,8.67,0,0,0,0,12c5.25,5.59,14.93,1.73,14.87-6Z"/><path class="cls-1" d="M70.66,36.71c-.27-8.76-.33-21.3-.43-30.18l.35-.07L87.84,3.23,105.12.1l.53-.1V.54q0,20.1-.45,40.18-.42-20.08-.46-40.18l.54.45c-8.6,1.62-25.93,4.79-34.54,6.32l.35-.43c0,8.78-.22,21.17-.43,29.83Z"/><path class="cls-1" d="M74.64,41.21q-.39-14.33-.44-28.65C81.26,10.82,94.58,7.63,101.66,6q0,14.81-.44,29.61c-.27-9.68-.4-19.37-.44-29l.54.43c-6.61,1.64-19.94,4.81-26.58,6.34l.34-.43Q75,27.06,74.64,41.21Z"/><path class="cls-1" d="M28,24.94a309.94,309.94,0,0,1,5.31,35.19A309.27,309.27,0,0,1,28,24.94Z"/><path class="cls-1" d="M39.25,66.31q-3.61-18.8-6.92-37.66a9.57,9.57,0,0,1,4.6,3.7,32.25,32.25,0,0,1,2.75,4.26l-.5-.26L42,35.94l-.39.54c-.86-7.4-6-12.52-13.68-11.54,8.2-1.79,13.84,4,14.68,11.86-.21,0-3,.49-3.33.52l-.33.06a29.74,29.74,0,0,0-4.39-6.3,5.85,5.85,0,0,0-1.86-1.34l.58-.49q3.09,18.51,5.93,37.06Z"/><path class="cls-1" d="M39.6,68a10.09,10.09,0,1,1-18-4.63A10.12,10.12,0,0,1,39.6,68Zm0,0a9.59,9.59,0,1,0-15.32,9C31,82.29,40.9,76.49,39.6,68Z"/><path class="cls-1" d="M50.35,61.5a19.69,19.69,0,0,1,8.52,2.79,19.69,19.69,0,0,1-8.52-2.79Z"/><path class="cls-1" d="M56,58.64a19.68,19.68,0,0,1-2.78,8.51A19.77,19.77,0,0,1,56,58.64Z"/><path class="cls-1" d="M6.19,44.14a19.68,19.68,0,0,1,8.51,2.78,19.77,19.77,0,0,1-8.51-2.78Z"/><path class="cls-1" d="M11.84,41.27a19.82,19.82,0,0,1-2.79,8.52,19.69,19.69,0,0,1,2.79-8.52Z"/><path class="cls-1" d="M0,20.9a41.2,41.2,0,0,1,12.37,4A41.57,41.57,0,0,1,0,20.9Z"/><path class="cls-1" d="M8.21,16.73A41.28,41.28,0,0,1,4.16,29.11,41.56,41.56,0,0,1,8.21,16.73Z"/><path class="cls-1" d="M110.33,64.92a19.83,19.83,0,0,1,8.51,2.79,19.61,19.61,0,0,1-8.51-2.79Z"/><path class="cls-1" d="M116,62.06a19.78,19.78,0,0,1-2.79,8.51A19.69,19.69,0,0,1,116,62.06Z"/><path class="cls-1" d="M114.49,34.22A19.64,19.64,0,0,1,123,37a19.81,19.81,0,0,1-8.51-2.78Z"/><path class="cls-1" d="M120.14,31.35a19.69,19.69,0,0,1-2.79,8.52,19.69,19.69,0,0,1,2.79-8.52Z"/><path class="cls-1" d="M48.42,22.92A41.28,41.28,0,0,1,60.8,27a41.28,41.28,0,0,1-12.38-4Z"/><path class="cls-1" d="M56.64,18.76a41.5,41.5,0,0,1-4,12.37,41.22,41.22,0,0,1,4-12.37Z"/></g></g></svg>