<svg xmlns="http://www.w3.org/2000/svg" viewBox="0 0 99.24 77.58"><defs><style>.cls-1{fill:#9b8870;}</style></defs><title>plate</title><g id="Слой_2" data-name="Слой 2"><g id="Слой_1-2" data-name="Слой 1"><path class="cls-1" d="M88.74,39.67a37.74,37.74,0,0,1-23,34.68C41,84.79,13.49,66.5,13.47,39.67S41-5.45,65.72,5a37.76,37.76,0,0,1,23,34.68Zm0,0A37.35,37.35,0,0,0,65.6,5.28C41.33-4.66,14.38,13.44,14.47,39.67,14.38,65.91,41.33,84,65.6,74.07a37.35,37.35,0,0,0,23.14-34.4Z"/><path class="cls-1" d="M74.83,39.67c0,20.95-25.39,31.59-40.37,16.9-9.35-9-9.35-24.83,0-33.8,15-14.69,40.38-4,40.37,16.9Zm0,0c-.12-20.74-25.2-31-39.77-16.29-8.85,8.59-8.85,24,0,32.59,14.57,14.7,39.65,4.44,39.77-16.3Z"/><path class="cls-1" d="M8.83,23.66c.39,18,.44,35.94.49,53.91H3.67v-.49c.05-17.81.11-35.62.49-53.42.39,17.8.45,35.61.5,53.42l-.5-.49H8.83l-.49.49c0-17.81.1-35.62.49-53.42Z"/><path class="cls-1" d="M5,24.29C-1.61,22.43,0,11.6.68,6.38A34.25,34.25,0,0,1,2.28,0C2.1,1.08,1.92,2.16,1.8,3.24c-.39,5.4-2.93,18.59,3.23,21Z"/><path class="cls-1" d="M8,24.29c6.15-2.45,3.61-15.65,3.22-21-.12-1.08-.3-2.16-.47-3.24a35.9,35.9,0,0,1,1.6,6.38C13,11.6,14.6,22.43,8,24.29Z"/><path class="cls-1" d="M5.1,0c-.18,5.22-.65,10.42-1.2,15.61l-1,0c-.17-2.59-.35-5.18-.44-7.78C2.37,5.51,2.25,2.27,2.28,0c.35,2.23.7,5.48.94,7.75.28,2.59.48,5.18.68,7.77l-1,0C3.49,10.32,4.15,5.14,5.1,0Z"/><path class="cls-1" d="M7.91,0c-.18,5.22-.65,10.42-1.2,15.61l-1,0c-.17-2.59-.35-5.18-.44-7.78C5.18,5.51,5.05,2.27,5.09,0c.35,2.23.7,5.48.94,7.75.28,2.59.48,5.18.68,7.77l-1,0C6.3,10.32,7,5.14,7.91,0Z"/><path class="cls-1" d="M10.72,0c-.18,5.22-.65,10.42-1.2,15.61l-1,0c-.17-2.59-.35-5.18-.45-7.78C8,5.51,7.86,2.27,7.89,0c.36,2.23.71,5.48,1,7.75.28,2.59.48,5.18.68,7.77l-1,0C9.11,10.32,9.77,5.14,10.72,0Z"/><path class="cls-1" d="M98.74,0c-2,3.73-4.24,7.31-5.3,11.43a30.61,30.61,0,0,0-.74,12.45l2.11,9a.22.22,0,0,1,0,.08c.14,14.72.1,29.44.15,44.17l-.49-.5h4.26l-.49.5c0-24.83.36-52.14.49-77.08Zm0,0c.13,25,.49,52.13.49,77.08v.49H94v-.5c.06-14.59,0-29.8.16-44.1l-2-9A30.17,30.17,0,0,1,95.58,5.49L98.74,0Z"/></g></g></svg>