<svg xmlns="http://www.w3.org/2000/svg" viewBox="0 0 102.69 111.63"><defs><style>.cls-1{fill:#9b8870;}</style></defs><title>rings</title><g id="Слой_2" data-name="Слой 2"><g id="Слой_1-2" data-name="Слой 1"><path class="cls-1" d="M42.64,101C14.42,109.3-9.75,79.7,3.94,53.67A33.29,33.29,0,0,1,49.1,40.22C74.81,54.5,70.77,92.51,42.64,101Zm0,0c22.25-6.57,30.7-34.21,15.86-52C44,31.24,15.63,33.89,4.69,54.08c-13.84,25.62,10,55.08,38,47Z"/><path class="cls-1" d="M59.08,61.82c6.86,23.05-17.58,43.06-38.86,31.79C7,86.81,1.84,69.4,9.16,56.49c11.64-21.08,43.06-17.7,49.92,5.33Zm0,0C52.15,39,21.16,35.93,9.91,56.9,3,69.29,8,86.29,20.62,92.86c20.89,11.39,45.15-8.16,38.46-31Z"/><path class="cls-1" d="M69.56,111.63C40.15,111.49,25.44,76.22,46,55.18a33.28,33.28,0,0,1,47.11,0c20.57,21,5.84,56.31-23.55,56.45Zm0,0c23.2.05,39.18-24,30.06-45.34-11.41-26.52-48.73-26.51-60.13,0-9.12,21.32,6.86,45.4,30.07,45.34Z"/><path class="cls-1" d="M96.51,78.74c0,24-29.14,36.24-46.32,19.36-10.69-10.28-10.7-28.44,0-38.73C67.36,42.5,96.51,54.7,96.51,78.74Zm0,0C96.39,54.91,67.56,43.1,50.8,60c-10.2,9.89-10.21,27.63,0,37.52,16.77,16.89,45.6,5.07,45.72-18.76Z"/><path class="cls-1" d="M30,26.66,24.07,38.12l-.11.21c-3.89-2-7.8-4-11.66-6.07l-.16-.09L12.09,32,9.43,23.27,9.36,23l.14-.2,4-5.69c.1-.13.07-.14.26-.18l7-2.06.15-.05.14.06c2.22.9,4.44,1.79,6.65,2.72.69,2.64,1.71,6.4,2.28,9Zm0,0c-.92-2.53-2.13-6.05-3-8.63l.22.25c-2.17-.83-4.34-1.69-6.51-2.54H21l-7,2.12.25-.18-3.94,5.72.07-.42,2.55,8.75-.22-.26c3.78,2,7.5,4.2,11.25,6.31l-.33.1L30,26.66Z"/><path class="cls-1" d="M9.91,23.13a62.32,62.32,0,0,1,7.48.39c2-.62,4-1.22,6-1.74l-.19.13c1.34-1.38,2.73-2.72,4.2-4-1.15,1.61-2.37,3.14-3.64,4.64l-.12,0c-2,.68-4,1.29-6.07,1.86a77,77,0,0,1-7.65-1.33Z"/><path class="cls-1" d="M20.89,15.33A54.14,54.14,0,0,1,24,22.09c.11,4,.14,8,0,12-.05,1.32-.08,2.64-.17,4-.15-1.31-.24-2.63-.35-3.94-.28-4-.43-7.9-.5-11.86a48.78,48.78,0,0,1-2.12-6.87Z"/><path class="cls-1" d="M23.86,38q-3.51-6.85-6.74-13.84a30.22,30.22,0,0,1-3.25-6.74,30.32,30.32,0,0,1,4.06,6.37C20,28.49,22,33.22,23.86,38Z"/><path class="cls-1" d="M12.51,31.87a21.54,21.54,0,0,1,5-7.9,21.33,21.33,0,0,1-5,7.9Z"/><path class="cls-1" d="M23.5,22.19A15.27,15.27,0,0,1,30,26.66a15.33,15.33,0,0,1-6.49-4.47Z"/><path class="cls-1" d="M12.53,0A34,34,0,0,1,15.9,11.31,34.22,34.22,0,0,1,12.53,0Z"/><path class="cls-1" d="M21.45,10.93a19.27,19.27,0,0,1,3-8.32,19.09,19.09,0,0,1-3,8.32Z"/><path class="cls-1" d="M10.89,14.08a19.23,19.23,0,0,1-7-5.33,19.12,19.12,0,0,1,7,5.33Z"/></g></g></svg>